<svg width="287" height="58" viewBox="0 0 287 58" fill="none" xmlns="http://www.w3.org/2000/svg">
<rect width="273" height="57" fill="black"/>
<path d="M66.4885 29.3179V26.19L78.9269 8.73719H66.4641V4.39225H85.5478V7.52012L73.0972 24.9729H85.5722V29.3179H66.4885ZM97.965 29.683C96.0745 29.683 94.4395 29.2814 93.0602 28.4781C91.689 27.6667 90.6301 26.5389 89.8836 25.0946C89.1372 23.6423 88.7639 21.9586 88.7639 20.0438C88.7639 18.1127 89.1372 16.425 89.8836 14.9808C90.6301 13.5284 91.689 12.4006 93.0602 11.5973C94.4395 10.7859 96.0745 10.3802 97.965 10.3802C99.8555 10.3802 101.486 10.7859 102.858 11.5973C104.237 12.4006 105.3 13.5284 106.046 14.9808C106.793 16.425 107.166 18.1127 107.166 20.0438C107.166 21.9586 106.793 23.6423 106.046 25.0946C105.3 26.5389 104.237 27.6667 102.858 28.4781C101.486 29.2814 99.8555 29.683 97.965 29.683ZM97.9893 25.6667C98.8494 25.6667 99.5675 25.4232 100.144 24.9364C100.72 24.4415 101.154 23.768 101.446 22.9161C101.746 22.0641 101.896 21.0945 101.896 20.0073C101.896 18.92 101.746 17.9504 101.446 17.0985C101.154 16.2465 100.72 15.5731 100.144 15.0781C99.5675 14.5832 98.8494 14.3357 97.9893 14.3357C97.1211 14.3357 96.3909 14.5832 95.7986 15.0781C95.2144 15.5731 94.7722 16.2465 94.472 17.0985C94.1799 17.9504 94.0338 18.92 94.0338 20.0073C94.0338 21.0945 94.1799 22.0641 94.472 22.9161C94.7722 23.768 95.2144 24.4415 95.7986 24.9364C96.3909 25.4232 97.1211 25.6667 97.9893 25.6667ZM118.984 29.683C117.093 29.683 115.458 29.2814 114.079 28.4781C112.708 27.6667 111.649 26.5389 110.902 25.0946C110.156 23.6423 109.783 21.9586 109.783 20.0438C109.783 18.1127 110.156 16.425 110.902 14.9808C111.649 13.5284 112.708 12.4006 114.079 11.5973C115.458 10.7859 117.093 10.3802 118.984 10.3802C120.874 10.3802 122.505 10.7859 123.876 11.5973C125.256 12.4006 126.319 13.5284 127.065 14.9808C127.812 16.425 128.185 18.1127 128.185 20.0438C128.185 21.9586 127.812 23.6423 127.065 25.0946C126.319 26.5389 125.256 27.6667 123.876 28.4781C122.505 29.2814 120.874 29.683 118.984 29.683ZM119.008 25.6667C119.868 25.6667 120.586 25.4232 121.162 24.9364C121.738 24.4415 122.173 23.768 122.465 22.9161C122.765 22.0641 122.915 21.0945 122.915 20.0073C122.915 18.92 122.765 17.9504 122.465 17.0985C122.173 16.2465 121.738 15.5731 121.162 15.0781C120.586 14.5832 119.868 14.3357 119.008 14.3357C118.14 14.3357 117.41 14.5832 116.817 15.0781C116.233 15.5731 115.791 16.2465 115.491 17.0985C115.199 17.9504 115.053 18.92 115.053 20.0073C115.053 21.0945 115.199 22.0641 115.491 22.9161C115.791 23.768 116.233 24.4415 116.817 24.9364C117.41 25.4232 118.14 25.6667 119.008 25.6667ZM131.654 4.39225H138.153L145.017 21.1392H145.309L152.173 4.39225H158.672V29.3179H153.561V13.0943H153.354L146.903 29.1962H143.423L136.972 13.0335H136.765V29.3179H131.654V4.39225ZM168.248 29.6708C167.055 29.6708 165.992 29.4639 165.059 29.0501C164.126 28.6282 163.388 28.0075 162.844 27.188C162.309 26.3604 162.041 25.3299 162.041 24.0966C162.041 23.0581 162.231 22.1858 162.613 21.4799C162.994 20.774 163.513 20.2061 164.171 19.776C164.828 19.346 165.574 19.0214 166.41 18.8024C167.254 18.5833 168.138 18.4291 169.063 18.3399C170.15 18.2263 171.027 18.1208 171.692 18.0234C172.357 17.918 172.84 17.7638 173.14 17.561C173.441 17.3581 173.591 17.0579 173.591 16.6603V16.5873C173.591 15.8165 173.347 15.2201 172.861 14.7982C172.382 14.3763 171.7 14.1653 170.816 14.1653C169.883 14.1653 169.14 14.3722 168.589 14.786C168.037 15.1917 167.672 15.7029 167.493 16.3195L162.698 15.9301C162.941 14.7942 163.42 13.8124 164.134 12.9848C164.848 12.1491 165.769 11.5081 166.897 11.0618C168.033 10.6074 169.347 10.3802 170.84 10.3802C171.879 10.3802 172.873 10.5019 173.822 10.7454C174.779 10.9888 175.627 11.3661 176.366 11.8772C177.112 12.3884 177.7 13.0456 178.13 13.8489C178.56 14.644 178.775 15.5974 178.775 16.709V29.3179H173.859V26.7255H173.712C173.412 27.3097 173.011 27.8249 172.508 28.2712C172.005 28.7093 171.4 29.0542 170.694 29.3057C169.988 29.5491 169.173 29.6708 168.248 29.6708ZM169.733 26.0926C170.495 26.0926 171.169 25.9425 171.753 25.6423C172.337 25.334 172.796 24.9202 173.128 24.4009C173.461 23.8816 173.627 23.2934 173.627 22.6361V20.6523C173.465 20.7578 173.242 20.8552 172.958 20.9444C172.682 21.0256 172.37 21.1026 172.021 21.1757C171.672 21.2406 171.323 21.3014 170.974 21.3582C170.625 21.4069 170.309 21.4515 170.025 21.4921C169.416 21.5814 168.885 21.7233 168.43 21.9181C167.976 22.1128 167.623 22.3765 167.372 22.7092C167.12 23.0337 166.994 23.4394 166.994 23.9262C166.994 24.6321 167.25 25.1717 167.761 25.5449C168.28 25.9101 168.937 26.0926 169.733 26.0926ZM187.983 18.5103V29.3179H182.798V10.6237H187.739V13.9219H187.958C188.372 12.8347 189.066 11.9746 190.039 11.3417C191.013 10.7007 192.194 10.3802 193.581 10.3802C194.879 10.3802 196.011 10.6642 196.977 11.2322C197.942 11.8002 198.693 12.6115 199.228 13.6663C199.764 14.713 200.032 15.9625 200.032 17.4149V29.3179H194.847V18.3399C194.855 17.1958 194.563 16.3033 193.971 15.6623C193.378 15.0132 192.563 14.6887 191.524 14.6887C190.827 14.6887 190.21 14.8388 189.674 15.139C189.147 15.4392 188.733 15.8773 188.433 16.4534C188.141 17.0214 187.991 17.707 187.983 18.5103ZM204.118 29.3179V10.6237H209.303V29.3179H204.118ZM206.722 8.21385C205.952 8.21385 205.29 7.95827 204.739 7.4471C204.195 6.92781 203.923 6.30711 203.923 5.58498C203.923 4.87096 204.195 4.25837 204.739 3.7472C205.29 3.22792 205.952 2.96828 206.722 2.96828C207.493 2.96828 208.151 3.22792 208.694 3.7472C209.246 4.25837 209.522 4.87096 209.522 5.58498C209.522 6.30711 209.246 6.92781 208.694 7.4471C208.151 7.95827 207.493 8.21385 206.722 8.21385ZM218.787 29.6708C217.594 29.6708 216.531 29.4639 215.598 29.0501C214.665 28.6282 213.927 28.0075 213.383 27.188C212.847 26.3604 212.58 25.3299 212.58 24.0966C212.58 23.0581 212.77 22.1858 213.152 21.4799C213.533 20.774 214.052 20.2061 214.71 19.776C215.367 19.346 216.113 19.0214 216.949 18.8024C217.793 18.5833 218.677 18.4291 219.602 18.3399C220.689 18.2263 221.566 18.1208 222.231 18.0234C222.896 17.918 223.379 17.7638 223.679 17.561C223.98 17.3581 224.13 17.0579 224.13 16.6603V16.5873C224.13 15.8165 223.886 15.2201 223.399 14.7982C222.921 14.3763 222.239 14.1653 221.355 14.1653C220.422 14.1653 219.679 14.3722 219.127 14.786C218.576 15.1917 218.211 15.7029 218.032 16.3195L213.237 15.9301C213.48 14.7942 213.959 13.8124 214.673 12.9848C215.387 12.1491 216.308 11.5081 217.436 11.0618C218.572 10.6074 219.886 10.3802 221.379 10.3802C222.418 10.3802 223.412 10.5019 224.361 10.7454C225.318 10.9888 226.166 11.3661 226.905 11.8772C227.651 12.3884 228.239 13.0456 228.669 13.8489C229.099 14.644 229.314 15.5974 229.314 16.709V29.3179H224.397V26.7255H224.251C223.951 27.3097 223.55 27.8249 223.046 28.2712C222.543 28.7093 221.939 29.0542 221.233 29.3057C220.527 29.5491 219.712 29.6708 218.787 29.6708ZM220.272 26.0926C221.034 26.0926 221.708 25.9425 222.292 25.6423C222.876 25.334 223.334 24.9202 223.667 24.4009C224 23.8816 224.166 23.2934 224.166 22.6361V20.6523C224.004 20.7578 223.781 20.8552 223.497 20.9444C223.221 21.0256 222.909 21.1026 222.56 21.1757C222.211 21.2406 221.862 21.3014 221.513 21.3582C221.164 21.4069 220.848 21.4515 220.564 21.4921C219.955 21.5814 219.424 21.7233 218.969 21.9181C218.515 22.1128 218.162 22.3765 217.91 22.7092C217.659 23.0337 217.533 23.4394 217.533 23.9262C217.533 24.6321 217.789 25.1717 218.3 25.5449C218.819 25.9101 219.476 26.0926 220.272 26.0926Z" fill="white"/>
<path d="M70.7454 40.4119C70.7017 40.0031 70.5176 39.6848 70.1931 39.457C69.8716 39.2292 69.4534 39.1153 68.9385 39.1153C68.5765 39.1153 68.266 39.1699 68.007 39.2791C67.748 39.3883 67.5498 39.5366 67.4125 39.7238C67.2752 39.9111 67.205 40.1248 67.2019 40.3651C67.2019 40.5648 67.2471 40.738 67.3376 40.8847C67.4312 41.0314 67.5576 41.1562 67.7168 41.2592C67.8759 41.3591 68.0523 41.4433 68.2457 41.512C68.4392 41.5806 68.6343 41.6384 68.8309 41.6852L69.7296 41.9099C70.0916 41.9941 70.4396 42.108 70.7735 42.2516C71.1105 42.3951 71.4117 42.5761 71.6769 42.7946C71.9453 43.013 72.1575 43.2767 72.3136 43.5857C72.4696 43.8946 72.5476 44.2566 72.5476 44.6717C72.5476 45.2334 72.4041 45.728 72.117 46.1556C71.8299 46.58 71.4148 46.9123 70.8718 47.1526C70.3319 47.3898 69.6781 47.5084 68.9104 47.5084C68.1646 47.5084 67.5171 47.3929 66.9678 47.162C66.4217 46.9311 65.9942 46.594 65.6852 46.1509C65.3794 45.7078 65.214 45.1679 65.189 44.5312H66.8976C66.9226 44.8652 67.0255 45.1429 67.2065 45.3645C67.3875 45.586 67.6232 45.7514 67.9134 45.8607C68.2067 45.9699 68.5344 46.0245 68.8964 46.0245C69.274 46.0245 69.6048 45.9683 69.8888 45.856C70.1759 45.7405 70.4006 45.5814 70.5629 45.3785C70.7251 45.1726 70.8078 44.9323 70.811 44.6576C70.8078 44.408 70.7345 44.202 70.5909 44.0397C70.4474 43.8743 70.2461 43.737 69.9871 43.6278C69.7312 43.5155 69.4316 43.4156 69.0883 43.3282L67.9976 43.0474C67.2081 42.8445 66.584 42.5371 66.1252 42.1252C65.6696 41.7101 65.4418 41.1593 65.4418 40.4728C65.4418 39.9079 65.5947 39.4133 65.9005 38.9889C66.2095 38.5645 66.6292 38.2352 67.1597 38.0012C67.6903 37.764 68.291 37.6454 68.9619 37.6454C69.6423 37.6454 70.2383 37.764 70.7501 38.0012C71.265 38.2352 71.6691 38.5614 71.9625 38.9795C72.2558 39.3946 72.4072 39.8721 72.4165 40.4119H70.7454ZM74.021 50.0596V40.1732H75.6874V41.3622H75.7857C75.8731 41.1874 75.9964 41.0017 76.1555 40.8051C76.3147 40.6054 76.53 40.4353 76.8015 40.2949C77.073 40.1514 77.4194 40.0796 77.8407 40.0796C78.3962 40.0796 78.8971 40.2216 79.3433 40.5056C79.7927 40.7864 80.1485 41.203 80.4106 41.7554C80.6759 42.3046 80.8085 42.9787 80.8085 43.7776C80.8085 44.5671 80.679 45.2381 80.42 45.7905C80.1609 46.3428 79.8083 46.7641 79.362 47.0543C78.9158 47.3446 78.4102 47.4897 77.8454 47.4897C77.4335 47.4897 77.0917 47.421 76.8202 47.2837C76.5487 47.1464 76.3303 46.981 76.1649 46.7875C76.0026 46.5909 75.8762 46.4052 75.7857 46.2305H75.7155V50.0596H74.021ZM75.6827 43.7682C75.6827 44.2332 75.7483 44.6405 75.8794 44.99C76.0135 45.3395 76.2055 45.6126 76.4551 45.8092C76.7079 46.0027 77.0137 46.0994 77.3726 46.0994C77.7471 46.0994 78.0607 45.9995 78.3135 45.7998C78.5663 45.597 78.7566 45.3208 78.8846 44.9713C79.0156 44.6186 79.0812 44.2176 79.0812 43.7682C79.0812 43.322 79.0172 42.9257 78.8893 42.5793C78.7613 42.2329 78.571 41.9614 78.3182 41.7648C78.0654 41.5681 77.7502 41.4698 77.3726 41.4698C77.0106 41.4698 76.7032 41.565 76.4504 41.7554C76.1977 41.9458 76.0057 42.2126 75.8747 42.5558C75.7467 42.8991 75.6827 43.3033 75.6827 43.7682ZM82.2596 47.3633V40.1732H83.9542V47.3633H82.2596ZM83.1116 39.1527C82.8432 39.1527 82.6123 39.0638 82.4188 38.8859C82.2253 38.7049 82.1285 38.488 82.1285 38.2352C82.1285 37.9793 82.2253 37.7625 82.4188 37.5846C82.6123 37.4036 82.8432 37.3131 83.1116 37.3131C83.3831 37.3131 83.614 37.4036 83.8044 37.5846C83.9978 37.7625 84.0946 37.9793 84.0946 38.2352C84.0946 38.488 83.9978 38.7049 83.8044 38.8859C83.614 39.0638 83.3831 39.1527 83.1116 39.1527ZM88.8798 47.5037C88.1589 47.5037 87.5363 47.3539 87.012 47.0543C86.4909 46.7516 86.0899 46.3241 85.809 45.7717C85.5282 45.2162 85.3877 44.5625 85.3877 43.8104C85.3877 43.0708 85.5282 42.4217 85.809 41.8631C86.093 41.3013 86.4893 40.8644 86.998 40.5524C87.5067 40.2372 88.1043 40.0796 88.7908 40.0796C89.234 40.0796 89.6522 40.1514 90.0454 40.2949C90.4417 40.4353 90.7912 40.6538 91.0939 40.9503C91.3997 41.2467 91.64 41.6243 91.8148 42.0831C91.9896 42.5387 92.0769 43.0817 92.0769 43.7121V44.2317H86.1835V43.0895H90.4526C90.4495 42.7649 90.3793 42.4763 90.242 42.2235C90.1047 41.9676 89.9127 41.7663 89.6662 41.6196C89.4228 41.473 89.1388 41.3996 88.8142 41.3996C88.4678 41.3996 88.1636 41.4839 87.9014 41.6524C87.6393 41.8178 87.4349 42.0363 87.2882 42.3078C87.1447 42.5761 87.0713 42.871 87.0682 43.1925V44.1895C87.0682 44.6077 87.1447 44.9666 87.2976 45.2662C87.4505 45.5626 87.6643 45.7905 87.9389 45.9496C88.2135 46.1056 88.5349 46.1837 88.9032 46.1837C89.1497 46.1837 89.3728 46.1493 89.5726 46.0807C89.7723 46.0089 89.9455 45.9044 90.0922 45.767C90.2388 45.6297 90.3496 45.4597 90.4245 45.2568L92.0067 45.4347C91.9069 45.8529 91.7165 46.218 91.4356 46.5301C91.1579 46.839 90.8021 47.0793 90.3684 47.2509C89.9346 47.4195 89.4384 47.5037 88.8798 47.5037ZM95.205 37.7765V47.3633H93.5105V37.7765H95.205ZM100.131 47.5037C99.4098 47.5037 98.7872 47.3539 98.2629 47.0543C97.7418 46.7516 97.3408 46.3241 97.0599 45.7717C96.779 45.2162 96.6386 44.5625 96.6386 43.8104C96.6386 43.0708 96.779 42.4217 97.0599 41.8631C97.3439 41.3013 97.7402 40.8644 98.2489 40.5524C98.7576 40.2372 99.3552 40.0796 100.042 40.0796C100.485 40.0796 100.903 40.1514 101.296 40.2949C101.693 40.4353 102.042 40.6538 102.345 40.9503C102.651 41.2467 102.891 41.6243 103.066 42.0831C103.24 42.5387 103.328 43.0817 103.328 43.7121V44.2317H97.4344V43.0895H101.703C101.7 42.7649 101.63 42.4763 101.493 42.2235C101.356 41.9676 101.164 41.7663 100.917 41.6196C100.674 41.473 100.39 41.3996 100.065 41.3996C99.7187 41.3996 99.4145 41.4839 99.1523 41.6524C98.8902 41.8178 98.6858 42.0363 98.5391 42.3078C98.3956 42.5761 98.3222 42.871 98.3191 43.1925V44.1895C98.3191 44.6077 98.3956 44.9666 98.5485 45.2662C98.7014 45.5626 98.9152 45.7905 99.1898 45.9496C99.4644 46.1056 99.7858 46.1837 100.154 46.1837C100.401 46.1837 100.624 46.1493 100.823 46.0807C101.023 46.0089 101.196 45.9044 101.343 45.767C101.49 45.6297 101.601 45.4597 101.675 45.2568L103.258 45.4347C103.158 45.8529 102.967 46.218 102.687 46.5301C102.409 46.839 102.053 47.0793 101.619 47.2509C101.185 47.4195 100.689 47.5037 100.131 47.5037ZM106.456 43.1503V47.3633H104.761V40.1732H106.381V41.395H106.465C106.631 40.9924 106.894 40.6725 107.256 40.4353C107.622 40.1982 108.072 40.0796 108.609 40.0796C109.105 40.0796 109.538 40.1857 109.906 40.3979C110.277 40.6101 110.564 40.9175 110.767 41.3201C110.973 41.7226 111.075 42.211 111.071 42.7852V47.3633H109.377V43.0474C109.377 42.5668 109.252 42.1907 109.002 41.9192C108.756 41.6477 108.414 41.512 107.977 41.512C107.681 41.512 107.417 41.5775 107.186 41.7086C106.958 41.8365 106.779 42.0222 106.648 42.2656C106.52 42.509 106.456 42.8039 106.456 43.1503ZM114.784 46.0526L114.723 46.5675C114.679 46.9607 114.601 47.3602 114.489 47.7659C114.379 48.1747 114.264 48.5507 114.142 48.894C114.02 49.2373 113.922 49.5072 113.847 49.7038H112.705C112.749 49.5134 112.808 49.2544 112.883 48.9267C112.961 48.5991 113.036 48.2308 113.108 47.822C113.179 47.4132 113.228 46.9982 113.253 46.5769L113.286 46.0526H114.784ZM124.94 40.4119C124.897 40.0031 124.712 39.6848 124.388 39.457C124.066 39.2292 123.648 39.1153 123.133 39.1153C122.771 39.1153 122.461 39.1699 122.202 39.2791C121.943 39.3883 121.745 39.5366 121.607 39.7238C121.47 39.9111 121.4 40.1248 121.397 40.3651C121.397 40.5648 121.442 40.738 121.532 40.8847C121.626 41.0314 121.752 41.1562 121.912 41.2592C122.071 41.3591 122.247 41.4433 122.441 41.512C122.634 41.5806 122.829 41.6384 123.026 41.6852L123.924 41.9099C124.286 41.9941 124.634 42.108 124.968 42.2516C125.305 42.3951 125.606 42.5761 125.872 42.7946C126.14 43.013 126.352 43.2767 126.508 43.5857C126.664 43.8946 126.742 44.2566 126.742 44.6717C126.742 45.2334 126.599 45.728 126.312 46.1556C126.025 46.58 125.61 46.9123 125.067 47.1526C124.527 47.3898 123.873 47.5084 123.105 47.5084C122.359 47.5084 121.712 47.3929 121.163 47.162C120.616 46.9311 120.189 46.594 119.88 46.1509C119.574 45.7078 119.409 45.1679 119.384 44.5312H121.092C121.117 44.8652 121.22 45.1429 121.401 45.3645C121.582 45.586 121.818 45.7514 122.108 45.8607C122.402 45.9699 122.729 46.0245 123.091 46.0245C123.469 46.0245 123.8 45.9683 124.084 45.856C124.371 45.7405 124.595 45.5814 124.758 45.3785C124.92 45.1726 125.003 44.9323 125.006 44.6576C125.003 44.408 124.929 44.202 124.786 44.0397C124.642 43.8743 124.441 43.737 124.182 43.6278C123.926 43.5155 123.626 43.4156 123.283 43.3282L122.192 43.0474C121.403 42.8445 120.779 42.5371 120.32 42.1252C119.864 41.7101 119.637 41.1593 119.637 40.4728C119.637 39.9079 119.789 39.4133 120.095 38.9889C120.404 38.5645 120.824 38.2352 121.355 38.0012C121.885 37.764 122.486 37.6454 123.157 37.6454C123.837 37.6454 124.433 37.764 124.945 38.0012C125.46 38.2352 125.864 38.5614 126.157 38.9795C126.451 39.3946 126.602 39.8721 126.611 40.4119H124.94ZM131.806 40.1732V41.4839H127.673V40.1732H131.806ZM128.693 38.4506H130.388V45.2006C130.388 45.4284 130.422 45.6032 130.491 45.7249C130.563 45.8435 130.656 45.9246 130.772 45.9683C130.887 46.012 131.015 46.0339 131.155 46.0339C131.262 46.0339 131.358 46.0261 131.446 46.0105C131.536 45.9949 131.605 45.9808 131.652 45.9683L131.937 47.2931C131.847 47.3243 131.717 47.3586 131.549 47.396C131.383 47.4335 131.18 47.4553 130.94 47.4616C130.516 47.4741 130.133 47.4101 129.793 47.2697C129.453 47.1261 129.183 46.9045 128.983 46.605C128.787 46.3054 128.69 45.9309 128.693 45.4815V38.4506ZM135.292 47.5084C134.837 47.5084 134.426 47.4273 134.061 47.265C133.699 47.0996 133.412 46.8562 133.2 46.5347C132.991 46.2133 132.886 45.817 132.886 45.3458C132.886 44.9401 132.961 44.6046 133.111 44.3393C133.261 44.0741 133.465 43.8619 133.724 43.7027C133.983 43.5435 134.275 43.4234 134.6 43.3423C134.927 43.258 135.266 43.1972 135.615 43.1597C136.037 43.116 136.378 43.077 136.64 43.0427C136.903 43.0052 137.093 42.9491 137.212 42.8742C137.333 42.7961 137.394 42.676 137.394 42.5137V42.4856C137.394 42.133 137.29 41.8599 137.08 41.6665C136.871 41.473 136.57 41.3762 136.177 41.3762C135.762 41.3762 135.433 41.4667 135.189 41.6477C134.949 41.8287 134.787 42.0425 134.703 42.289L133.12 42.0643C133.245 41.6274 133.451 41.2623 133.738 40.969C134.025 40.6725 134.376 40.4509 134.791 40.3043C135.207 40.1545 135.665 40.0796 136.168 40.0796C136.514 40.0796 136.859 40.1201 137.202 40.2013C137.545 40.2824 137.859 40.4166 138.143 40.6039C138.427 40.788 138.655 41.0392 138.827 41.3575C139.001 41.6758 139.089 42.0737 139.089 42.5512V47.3633H137.46V46.3756H137.403C137.3 46.5753 137.155 46.7625 136.968 46.9373C136.784 47.1089 136.552 47.2478 136.271 47.3539C135.993 47.4569 135.667 47.5084 135.292 47.5084ZM135.732 46.2632C136.073 46.2632 136.367 46.1961 136.617 46.062C136.867 45.9246 137.059 45.7436 137.193 45.5189C137.33 45.2943 137.399 45.0493 137.399 44.784V43.9368C137.346 43.9804 137.255 44.021 137.127 44.0585C137.002 44.0959 136.862 44.1287 136.706 44.1568C136.55 44.1849 136.395 44.2098 136.243 44.2317C136.09 44.2535 135.957 44.2722 135.845 44.2878C135.592 44.3222 135.366 44.3783 135.166 44.4564C134.966 44.5344 134.809 44.6436 134.693 44.784C134.578 44.9213 134.52 45.0992 134.52 45.3177C134.52 45.6297 134.634 45.8653 134.862 46.0245C135.089 46.1837 135.38 46.2632 135.732 46.2632ZM145.375 44.3393V40.1732H147.07V47.3633H145.427V46.0854H145.352C145.19 46.4879 144.923 46.8172 144.551 47.0731C144.183 47.329 143.729 47.4569 143.189 47.4569C142.718 47.4569 142.301 47.3524 141.939 47.1433C141.581 46.9311 141.3 46.6237 141.097 46.2211C140.894 45.8154 140.793 45.3255 140.793 44.7513V40.1732H142.487V44.4891C142.487 44.9447 142.612 45.3067 142.862 45.5751C143.111 45.8435 143.439 45.9777 143.845 45.9777C144.094 45.9777 144.336 45.9168 144.57 45.7951C144.804 45.6734 144.996 45.4924 145.146 45.2521C145.299 45.0087 145.375 44.7044 145.375 44.3393ZM150.507 43.1503V47.3633H148.812V40.1732H150.432V41.395H150.516C150.682 40.9924 150.945 40.6725 151.307 40.4353C151.672 40.1982 152.123 40.0796 152.66 40.0796C153.156 40.0796 153.589 40.1857 153.957 40.3979C154.328 40.6101 154.615 40.9175 154.818 41.3201C155.024 41.7226 155.126 42.211 155.122 42.7852V47.3633H153.428V43.0474C153.428 42.5668 153.303 42.1907 153.053 41.9192C152.807 41.6477 152.465 41.512 152.028 41.512C151.732 41.512 151.468 41.5775 151.237 41.7086C151.009 41.8365 150.83 42.0222 150.699 42.2656C150.571 42.509 150.507 42.8039 150.507 43.1503ZM160.028 47.5037C159.307 47.5037 158.685 47.3539 158.16 47.0543C157.639 46.7516 157.238 46.3241 156.957 45.7717C156.677 45.2162 156.536 44.5625 156.536 43.8104C156.536 43.0708 156.677 42.4217 156.957 41.8631C157.241 41.3013 157.638 40.8644 158.146 40.5524C158.655 40.2372 159.253 40.0796 159.939 40.0796C160.382 40.0796 160.801 40.1514 161.194 40.2949C161.59 40.4353 161.94 40.6538 162.242 40.9503C162.548 41.2467 162.788 41.6243 162.963 42.0831C163.138 42.5387 163.225 43.0817 163.225 43.7121V44.2317H157.332V43.0895H161.601C161.598 42.7649 161.528 42.4763 161.39 42.2235C161.253 41.9676 161.061 41.7663 160.815 41.6196C160.571 41.473 160.287 41.3996 159.963 41.3996C159.616 41.3996 159.312 41.4839 159.05 41.6524C158.788 41.8178 158.583 42.0363 158.437 42.3078C158.293 42.5761 158.22 42.871 158.217 43.1925V44.1895C158.217 44.6077 158.293 44.9666 158.446 45.2662C158.599 45.5626 158.813 45.7905 159.087 45.9496C159.362 46.1056 159.683 46.1837 160.052 46.1837C160.298 46.1837 160.521 46.1493 160.721 46.0807C160.921 46.0089 161.094 45.9044 161.241 45.767C161.387 45.6297 161.498 45.4597 161.573 45.2568L163.155 45.4347C163.055 45.8529 162.865 46.218 162.584 46.5301C162.306 46.839 161.95 47.0793 161.517 47.2509C161.083 47.4195 160.587 47.5037 160.028 47.5037ZM166.353 43.1503V47.3633H164.659V40.1732H166.278V41.395H166.363C166.528 40.9924 166.792 40.6725 167.154 40.4353C167.519 40.1982 167.97 40.0796 168.507 40.0796C169.003 40.0796 169.435 40.1857 169.803 40.3979C170.175 40.6101 170.462 40.9175 170.665 41.3201C170.871 41.7226 170.972 42.211 170.969 42.7852V47.3633H169.274V43.0474C169.274 42.5668 169.15 42.1907 168.9 41.9192C168.653 41.6477 168.312 41.512 167.875 41.512C167.578 41.512 167.315 41.5775 167.084 41.7086C166.856 41.8365 166.676 42.0222 166.545 42.2656C166.417 42.509 166.353 42.8039 166.353 43.1503ZM174.681 46.0526L174.62 46.5675C174.576 46.9607 174.498 47.3602 174.386 47.7659C174.277 48.1747 174.161 48.5507 174.04 48.894C173.918 49.2373 173.82 49.5072 173.745 49.7038H172.603C172.646 49.5134 172.706 49.2544 172.78 48.9267C172.858 48.5991 172.933 48.2308 173.005 47.822C173.077 47.4132 173.125 46.9982 173.15 46.5769L173.183 46.0526H174.681ZM179.206 39.2323V37.7765H186.855V39.2323H183.892V47.3633H182.169V39.2323H179.206ZM188.255 47.3633V40.1732H189.949V47.3633H188.255ZM189.107 39.1527C188.838 39.1527 188.607 39.0638 188.414 38.8859C188.221 38.7049 188.124 38.488 188.124 38.2352C188.124 37.9793 188.221 37.7625 188.414 37.5846C188.607 37.4036 188.838 37.3131 189.107 37.3131C189.378 37.3131 189.609 37.4036 189.8 37.5846C189.993 37.7625 190.09 37.9793 190.09 38.2352C190.09 38.488 189.993 38.7049 189.8 38.8859C189.609 39.0638 189.378 39.1527 189.107 39.1527ZM194.875 47.5037C194.154 47.5037 193.532 47.3539 193.007 47.0543C192.486 46.7516 192.085 46.3241 191.804 45.7717C191.523 45.2162 191.383 44.5625 191.383 43.8104C191.383 43.0708 191.523 42.4217 191.804 41.8631C192.088 41.3013 192.485 40.8644 192.993 40.5524C193.502 40.2372 194.099 40.0796 194.786 40.0796C195.229 40.0796 195.647 40.1514 196.041 40.2949C196.437 40.4353 196.786 40.6538 197.089 40.9503C197.395 41.2467 197.635 41.6243 197.81 42.0831C197.985 42.5387 198.072 43.0817 198.072 43.7121V44.2317H192.179V43.0895H196.448C196.445 42.7649 196.374 42.4763 196.237 42.2235C196.1 41.9676 195.908 41.7663 195.661 41.6196C195.418 41.473 195.134 41.3996 194.809 41.3996C194.463 41.3996 194.159 41.4839 193.897 41.6524C193.635 41.8178 193.43 42.0363 193.283 42.3078C193.14 42.5761 193.067 42.871 193.063 43.1925V44.1895C193.063 44.6077 193.14 44.9666 193.293 45.2662C193.446 45.5626 193.659 45.7905 193.934 45.9496C194.209 46.1056 194.53 46.1837 194.898 46.1837C195.145 46.1837 195.368 46.1493 195.568 46.0807C195.768 46.0089 195.941 45.9044 196.087 45.767C196.234 45.6297 196.345 45.4597 196.42 45.2568L198.002 45.4347C197.902 45.8529 197.712 46.218 197.431 46.5301C197.153 46.839 196.797 47.0793 196.364 47.2509C195.93 47.4195 195.434 47.5037 194.875 47.5037ZM199.506 47.3633V40.1732H201.149V41.3715H201.224C201.355 40.9565 201.579 40.6366 201.898 40.4119C202.219 40.1841 202.586 40.0702 202.998 40.0702C203.091 40.0702 203.196 40.0749 203.311 40.0843C203.43 40.0905 203.528 40.1014 203.606 40.117V41.6758C203.535 41.6508 203.421 41.629 203.265 41.6103C203.112 41.5884 202.963 41.5775 202.82 41.5775C202.511 41.5775 202.233 41.6446 201.987 41.7788C201.743 41.9099 201.551 42.0924 201.411 42.3265C201.27 42.5605 201.2 42.8305 201.2 43.1363V47.3633H199.506ZM207.619 47.5037C206.898 47.5037 206.276 47.3539 205.751 47.0543C205.23 46.7516 204.829 46.3241 204.548 45.7717C204.268 45.2162 204.127 44.5625 204.127 43.8104C204.127 43.0708 204.268 42.4217 204.548 41.8631C204.832 41.3013 205.229 40.8644 205.737 40.5524C206.246 40.2372 206.844 40.0796 207.53 40.0796C207.973 40.0796 208.392 40.1514 208.785 40.2949C209.181 40.4353 209.531 40.6538 209.833 40.9503C210.139 41.2467 210.379 41.6243 210.554 42.0831C210.729 42.5387 210.816 43.0817 210.816 43.7121V44.2317H204.923V43.0895H209.192C209.189 42.7649 209.119 42.4763 208.981 42.2235C208.844 41.9676 208.652 41.7663 208.406 41.6196C208.162 41.473 207.878 41.3996 207.554 41.3996C207.207 41.3996 206.903 41.4839 206.641 41.6524C206.379 41.8178 206.174 42.0363 206.028 42.3078C205.884 42.5761 205.811 42.871 205.808 43.1925V44.1895C205.808 44.6077 205.884 44.9666 206.037 45.2662C206.19 45.5626 206.404 45.7905 206.678 45.9496C206.953 46.1056 207.274 46.1837 207.643 46.1837C207.889 46.1837 208.112 46.1493 208.312 46.0807C208.512 46.0089 208.685 45.9044 208.832 45.767C208.978 45.6297 209.089 45.4597 209.164 45.2568L210.746 45.4347C210.646 45.8529 210.456 46.218 210.175 46.5301C209.897 46.839 209.541 47.0793 209.108 47.2509C208.674 47.4195 208.178 47.5037 207.619 47.5037ZM218.703 47.5037C217.982 47.5037 217.359 47.3539 216.835 47.0543C216.314 46.7516 215.913 46.3241 215.632 45.7717C215.351 45.2162 215.211 44.5625 215.211 43.8104C215.211 43.0708 215.351 42.4217 215.632 41.8631C215.916 41.3013 216.312 40.8644 216.821 40.5524C217.33 40.2372 217.927 40.0796 218.614 40.0796C219.057 40.0796 219.475 40.1514 219.868 40.2949C220.265 40.4353 220.614 40.6538 220.917 40.9503C221.223 41.2467 221.463 41.6243 221.638 42.0831C221.812 42.5387 221.9 43.0817 221.9 43.7121V44.2317H216.006V43.0895H220.276C220.272 42.7649 220.202 42.4763 220.065 42.2235C219.928 41.9676 219.736 41.7663 219.489 41.6196C219.246 41.473 218.962 41.3996 218.637 41.3996C218.291 41.3996 217.986 41.4839 217.724 41.6524C217.462 41.8178 217.258 42.0363 217.111 42.3078C216.968 42.5761 216.894 42.871 216.891 43.1925V44.1895C216.891 44.6077 216.968 44.9666 217.12 45.2662C217.273 45.5626 217.487 45.7905 217.762 45.9496C218.036 46.1056 218.358 46.1837 218.726 46.1837C218.973 46.1837 219.196 46.1493 219.395 46.0807C219.595 46.0089 219.768 45.9044 219.915 45.767C220.062 45.6297 220.173 45.4597 220.247 45.2568L221.83 45.4347C221.73 45.8529 221.539 46.218 221.259 46.5301C220.981 46.839 220.625 47.0793 220.191 47.2509C219.757 47.4195 219.261 47.5037 218.703 47.5037ZM223.333 47.3633V40.1732H224.976V41.3715H225.051C225.182 40.9565 225.407 40.6366 225.725 40.4119C226.047 40.1841 226.414 40.0702 226.825 40.0702C226.919 40.0702 227.024 40.0749 227.139 40.0843C227.258 40.0905 227.356 40.1014 227.434 40.117V41.6758C227.362 41.6508 227.248 41.629 227.092 41.6103C226.939 41.5884 226.791 41.5775 226.648 41.5775C226.339 41.5775 226.061 41.6446 225.814 41.7788C225.571 41.9099 225.379 42.0924 225.239 42.3265C225.098 42.5605 225.028 42.8305 225.028 43.1363V47.3633H223.333ZM230.254 37.7765V47.3633H228.56V37.7765H230.254ZM235.18 47.5037C234.459 47.5037 233.836 47.3539 233.312 47.0543C232.791 46.7516 232.39 46.3241 232.109 45.7717C231.828 45.2162 231.688 44.5625 231.688 43.8104C231.688 43.0708 231.828 42.4217 232.109 41.8631C232.393 41.3013 232.789 40.8644 233.298 40.5524C233.807 40.2372 234.404 40.0796 235.091 40.0796C235.534 40.0796 235.952 40.1514 236.346 40.2949C236.742 40.4353 237.091 40.6538 237.394 40.9503C237.7 41.2467 237.94 41.6243 238.115 42.0831C238.29 42.5387 238.377 43.0817 238.377 43.7121V44.2317H232.484V43.0895H236.753C236.75 42.7649 236.679 42.4763 236.542 42.2235C236.405 41.9676 236.213 41.7663 235.966 41.6196C235.723 41.473 235.439 41.3996 235.114 41.3996C234.768 41.3996 234.464 41.4839 234.202 41.6524C233.939 41.8178 233.735 42.0363 233.588 42.3078C233.445 42.5761 233.372 42.871 233.368 43.1925V44.1895C233.368 44.6077 233.445 44.9666 233.598 45.2662C233.751 45.5626 233.964 45.7905 234.239 45.9496C234.514 46.1056 234.835 46.1837 235.203 46.1837C235.45 46.1837 235.673 46.1493 235.873 46.0807C236.072 46.0089 236.246 45.9044 236.392 45.767C236.539 45.6297 236.65 45.4597 236.725 45.2568L238.307 45.4347C238.207 45.8529 238.017 46.218 237.736 46.5301C237.458 46.839 237.102 47.0793 236.669 47.2509C236.235 47.4195 235.739 47.5037 235.18 47.5037ZM239.886 47.3633V37.7765H241.58V41.3622H241.65C241.738 41.1874 241.861 41.0017 242.02 40.8051C242.179 40.6054 242.395 40.4353 242.666 40.2949C242.938 40.1514 243.284 40.0796 243.705 40.0796C244.261 40.0796 244.762 40.2216 245.208 40.5056C245.657 40.7864 246.013 41.203 246.275 41.7554C246.54 42.3046 246.673 42.9787 246.673 43.7776C246.673 44.5671 246.544 45.2381 246.285 45.7905C246.026 46.3428 245.673 46.7641 245.227 47.0543C244.78 47.3446 244.275 47.4897 243.71 47.4897C243.298 47.4897 242.956 47.421 242.685 47.2837C242.413 47.1464 242.195 46.981 242.029 46.7875C241.867 46.5909 241.741 46.4052 241.65 46.2305H241.552V47.3633H239.886ZM241.547 43.7682C241.547 44.2332 241.613 44.6405 241.744 44.99C241.878 45.3395 242.07 45.6126 242.32 45.8092C242.572 46.0027 242.878 46.0994 243.237 46.0994C243.612 46.0994 243.925 45.9995 244.178 45.7998C244.431 45.597 244.621 45.3208 244.749 44.9713C244.88 44.6186 244.946 44.2176 244.946 43.7682C244.946 43.322 244.882 42.9257 244.754 42.5793C244.626 42.2329 244.436 41.9614 244.183 41.7648C243.93 41.5681 243.615 41.4698 243.237 41.4698C242.875 41.4698 242.568 41.565 242.315 41.7554C242.062 41.9458 241.87 42.2126 241.739 42.5558C241.611 42.8991 241.547 43.3033 241.547 43.7682ZM251.297 47.5037C250.576 47.5037 249.953 47.3539 249.429 47.0543C248.908 46.7516 248.507 46.3241 248.226 45.7717C247.945 45.2162 247.805 44.5625 247.805 43.8104C247.805 43.0708 247.945 42.4217 248.226 41.8631C248.51 41.3013 248.906 40.8644 249.415 40.5524C249.924 40.2372 250.521 40.0796 251.208 40.0796C251.651 40.0796 252.069 40.1514 252.462 40.2949C252.859 40.4353 253.208 40.6538 253.511 40.9503C253.817 41.2467 254.057 41.6243 254.232 42.0831C254.407 42.5387 254.494 43.0817 254.494 43.7121V44.2317H248.6V43.0895H252.87C252.866 42.7649 252.796 42.4763 252.659 42.2235C252.522 41.9676 252.33 41.7663 252.083 41.6196C251.84 41.473 251.556 41.3996 251.231 41.3996C250.885 41.3996 250.581 41.4839 250.318 41.6524C250.056 41.8178 249.852 42.0363 249.705 42.3078C249.562 42.5761 249.488 42.871 249.485 43.1925V44.1895C249.485 44.6077 249.562 44.9666 249.715 45.2662C249.868 45.5626 250.081 45.7905 250.356 45.9496C250.631 46.1056 250.952 46.1837 251.32 46.1837C251.567 46.1837 251.79 46.1493 251.99 46.0807C252.189 46.0089 252.362 45.9044 252.509 45.767C252.656 45.6297 252.767 45.4597 252.842 45.2568L254.424 45.4347C254.324 45.8529 254.133 46.218 253.853 46.5301C253.575 46.839 253.219 47.0793 252.785 47.2509C252.352 47.4195 251.855 47.5037 251.297 47.5037ZM257.622 43.1503V47.3633H255.927V40.1732H257.547V41.395H257.631C257.797 40.9924 258.06 40.6725 258.422 40.4353C258.788 40.1982 259.239 40.0796 259.775 40.0796C260.272 40.0796 260.704 40.1857 261.072 40.3979C261.443 40.6101 261.73 40.9175 261.933 41.3201C262.139 41.7226 262.241 42.211 262.238 42.7852V47.3633H260.543V43.0474C260.543 42.5668 260.418 42.1907 260.169 41.9192C259.922 41.6477 259.58 41.512 259.143 41.512C258.847 41.512 258.583 41.5775 258.352 41.7086C258.124 41.8365 257.945 42.0222 257.814 42.2656C257.686 42.509 257.622 42.8039 257.622 43.1503ZM266.034 37.7765L265.879 44.5453H264.372L264.222 37.7765H266.034ZM265.126 47.4663C264.842 47.4663 264.598 47.3664 264.396 47.1667C264.196 46.967 264.096 46.7235 264.096 46.4364C264.096 46.1556 264.196 45.9153 264.396 45.7156C264.598 45.5158 264.842 45.416 265.126 45.416C265.404 45.416 265.644 45.5158 265.847 45.7156C266.053 45.9153 266.156 46.1556 266.156 46.4364C266.156 46.6268 266.107 46.8 266.01 46.956C265.917 47.1121 265.792 47.2369 265.636 47.3305C265.483 47.421 265.313 47.4663 265.126 47.4663Z" fill="white"/>
<g clip-path="url(#clip0_465_18705)">
<rect width="54.0455" height="54.0455" transform="translate(0 1.97729)" fill="black"/>
<path d="M38.7798 15.2478L49.135 8.31564L55.5657 10.253L54.5333 15.6975L50.3897 15.6975L50.3897 12.6175" stroke="white" stroke-width="0.506676"/>
<path d="M36.4786 12.3728L41.5162 4.83368L40.9243 2.35167" stroke="white" stroke-width="0.506676"/>
<path d="M39.663 14.5198L36.0138 17.4701" stroke="white" stroke-width="1.35114"/>
<path d="M34.1211 15.4883L36.4856 12.4482" stroke="white" stroke-width="1.35114"/>
<path d="M8.48481 49.4535L6.42 53.7226L3.47751 56.0231L2.83979 57.262" stroke="white" stroke-width="0.506676"/>
<path d="M5.11339 47.3048L1.70132 48.357L-1.3932 51.2036L-2.54568 51.1373" stroke="white" stroke-width="0.506676"/>
<path d="M7.43528 43.1862L3.26895 46.1983L-0.680511 46.482L-1.78692 47.5451" stroke="white" stroke-width="0.506676"/>
<path d="M11.9746 47.1017L10.1293 51.6579L9.7124 55.1317L8.69104 56.8289" stroke="white" stroke-width="0.506676"/>
<path d="M3.27498 52.2277C3.22131 52.1691 3.18864 52.0586 3.18966 51.8861C3.19066 51.7172 3.22378 51.5061 3.28185 51.2656C3.39785 50.7852 3.60957 50.2031 3.84168 49.6383C4.0735 49.0742 4.32439 48.5303 4.51745 48.1273C4.61394 47.9259 4.69592 47.7598 4.75375 47.6441C4.76956 47.6124 4.78357 47.5846 4.79557 47.5608L7.73235 50.1875C7.70853 50.2034 7.68029 50.2221 7.64796 50.2435C7.53639 50.3172 7.37624 50.4218 7.18215 50.5452C6.79383 50.7922 6.27018 51.1144 5.728 51.4156C5.18502 51.7174 4.62679 51.9963 4.16848 52.1586C3.93887 52.2399 3.73915 52.2901 3.58137 52.3011C3.42028 52.3123 3.32424 52.2814 3.27498 52.2277Z" fill="#FF3437" stroke="black" stroke-width="0.168892"/>
<path d="M7.94065 50.1076C7.92554 50.1183 7.91112 50.1264 7.89696 50.1319C7.64354 50.2297 7.32521 50.2105 6.98229 50.0947C6.64054 49.9793 6.28297 49.7707 5.9581 49.5031C5.30423 48.9646 4.80572 48.2076 4.81242 47.5264C4.81274 47.4933 4.82239 47.4592 4.84028 47.426L7.89126 41.7775C7.96699 41.6373 8.1518 41.601 8.27494 41.7021L13.3443 45.8651C13.4733 45.971 13.4664 46.1704 13.3306 46.2672L7.94065 50.1076Z" fill="#FFA970" stroke="black" stroke-width="0.168892"/>
<path d="M37.2625 30.3982C33.8158 34.7692 27.4657 35.5104 23.0788 32.0513C18.692 28.5921 17.9318 22.2443 21.3785 17.8732C24.8252 13.5021 31.1753 12.7609 35.5622 16.2201C39.949 19.6792 40.7092 26.0271 37.2625 30.3982Z" fill="#FF0004" stroke="black" stroke-width="0.506676"/>
<path d="M17.0475 29.9567L19.6021 26.7114C21.0563 28.759 22.3486 30.2393 23.8755 31.4441C25.4032 32.6496 27.154 33.5702 29.5135 34.5135L26.9589 37.7587L17.0475 29.9567Z" fill="#443417" stroke="white" stroke-width="0.506676"/>
<path d="M16.7527 27.0475C16.7804 27.0441 16.8119 27.0563 16.8317 27.0817C18.977 29.8354 20.8441 31.7649 22.9397 33.3749C25.034 34.9838 27.3476 36.2668 30.3761 37.7348C30.4076 37.7501 30.4265 37.7823 30.426 37.8134L30.2349 50.4652C30.2341 50.5202 30.1818 50.5597 30.1287 50.5455L12.4944 45.8398C12.4779 45.8354 12.4632 45.8262 12.4521 45.8133L5.30303 37.5084C5.29288 37.4966 5.28618 37.4823 5.28368 37.4669L3.85809 28.7094C3.85038 28.662 3.8836 28.6178 3.93121 28.612L16.7527 27.0475Z" fill="#FF954F" stroke="white" stroke-width="0.506676"/>
<path d="M24.4204 17.1987C24.261 15.0836 26.1385 13.1751 28.6743 12.9841C31.21 12.7931 33.3522 14.3987 33.5116 16.5138C33.6709 18.629 31.7934 20.5374 29.2577 20.7284C26.7219 20.9195 24.5797 19.3138 24.4204 17.1987Z" fill="white" stroke="black" stroke-width="0.337784"/>
<path d="M25.6845 16.1446C25.4609 14.7108 26.7236 13.265 28.594 12.9733C30.4643 12.6816 32.1073 13.6744 32.3309 15.1082C32.5545 16.542 31.2918 17.9878 29.4214 18.2795C27.5511 18.5711 25.9081 17.5784 25.6845 16.1446Z" fill="black" stroke="white" stroke-width="0.337784"/>
<path d="M27.8252 14.0665C28.0916 13.853 28.4053 13.8899 28.5401 14.0581C28.6748 14.2263 28.6424 14.5405 28.3759 14.754C28.1095 14.9674 27.7958 14.9306 27.661 14.7624C27.5262 14.5941 27.5587 14.2799 27.8252 14.0665Z" fill="white" stroke="white" stroke-width="0.337784"/>
<path d="M38.3767 27.3894C40.3944 26.4998 41.2239 23.8446 40.1585 21.4281C39.0931 19.0115 36.5734 17.8329 34.5556 18.7224C32.5379 19.612 31.7084 22.2673 32.7738 24.6838C33.8392 27.1003 36.359 28.279 38.3767 27.3894Z" fill="white" stroke="black" stroke-width="0.337784"/>
<path d="M38.7175 25.7121C40.1435 25.2146 40.8499 23.3478 40.2022 21.4914C39.5544 19.635 37.84 18.613 36.414 19.1106C34.988 19.6082 34.2816 21.4749 34.9294 23.3313C35.5772 25.1877 37.2916 26.2097 38.7175 25.7121Z" fill="black" stroke="white" stroke-width="0.337784"/>
<path d="M39.2199 23.7428C39.5601 23.7142 39.7623 23.4715 39.7442 23.2567C39.7262 23.0419 39.4863 22.8364 39.1461 22.865C38.8059 22.8936 38.6037 23.1363 38.6218 23.3511C38.6399 23.5659 38.8798 23.7714 39.2199 23.7428Z" fill="white" stroke="white" stroke-width="0.337784"/>
<rect x="43.9963" y="44.0634" width="38.4416" height="10.3369" rx="1.01335" transform="rotate(50.6601 43.9963 44.0634)" fill="#01B0C4" stroke="white" stroke-width="0.675568"/>
<rect x="30.0803" y="49.5037" width="18.5988" height="7.04264" rx="1.18224" transform="rotate(-34.6359 30.0803 49.5037)" fill="#01B0C4" stroke="black" stroke-width="1.01335"/>
<mask id="path-24-outside-1_465_18705" maskUnits="userSpaceOnUse" x="-1.7887" y="-0.159431" width="55.0536" height="55.0536" fill="black">
<rect fill="white" x="-1.7887" y="-0.159431" width="55.0536" height="55.0536"/>
<path d="M49.1141 30.5334C47.3933 43.4224 35.5497 52.476 22.6606 50.7552C9.77162 49.0344 0.718016 37.1908 2.43885 24.3017C4.15968 11.4127 16.0033 2.35912 28.8923 4.07995C41.7813 5.80078 50.8349 17.6444 49.1141 30.5334ZM7.68462 25.0021C6.35059 34.994 13.3692 44.1754 23.361 45.5094C33.3529 46.8435 42.5343 39.8249 43.8683 29.8331C45.2024 19.8412 38.1838 10.6598 28.1919 9.32572C18.2001 7.9917 9.01865 15.0103 7.68462 25.0021Z"/>
</mask>
<path d="M49.1141 30.5334C47.3933 43.4224 35.5497 52.476 22.6606 50.7552C9.77162 49.0344 0.718016 37.1908 2.43885 24.3017C4.15968 11.4127 16.0033 2.35912 28.8923 4.07995C41.7813 5.80078 50.8349 17.6444 49.1141 30.5334ZM7.68462 25.0021C6.35059 34.994 13.3692 44.1754 23.361 45.5094C33.3529 46.8435 42.5343 39.8249 43.8683 29.8331C45.2024 19.8412 38.1838 10.6598 28.1919 9.32572C18.2001 7.9917 9.01865 15.0103 7.68462 25.0021Z" fill="#01B0C4"/>
<path d="M49.1141 30.5334C47.3933 43.4224 35.5497 52.476 22.6606 50.7552C9.77162 49.0344 0.718016 37.1908 2.43885 24.3017C4.15968 11.4127 16.0033 2.35912 28.8923 4.07995C41.7813 5.80078 50.8349 17.6444 49.1141 30.5334ZM7.68462 25.0021C6.35059 34.994 13.3692 44.1754 23.361 45.5094C33.3529 46.8435 42.5343 39.8249 43.8683 29.8331C45.2024 19.8412 38.1838 10.6598 28.1919 9.32572C18.2001 7.9917 9.01865 15.0103 7.68462 25.0021Z" stroke="#0D0000" stroke-width="0.675568" mask="url(#path-24-outside-1_465_18705)"/>
<path d="M11.9473 28.2896L11.94 28.3028L11.9352 28.3172L11.3786 29.9866C10.9405 28.297 10.8417 26.5053 11.0945 24.7684C11.3737 22.8497 12.0709 21.0725 13.1094 19.6247C13.6332 18.8945 14.0848 18.3574 14.661 17.8871C15.2369 17.4169 15.9446 17.0076 16.9866 16.5431C18.4117 16.001 19.9309 15.924 21.3987 16.3172L19.9471 18.7789C19.5205 18.6983 19.0903 18.8408 18.7078 19.054C18.2837 19.2904 17.8889 19.6301 17.5757 19.9191C17.4588 20.0271 17.323 20.1491 17.1767 20.2805C16.9424 20.4909 16.6813 20.7255 16.4282 20.9647C16.0146 21.3557 15.6026 21.7771 15.3216 22.1689C14.7792 22.9249 13.9173 24.1594 13.3944 25.1082C13.1312 25.5858 12.8959 26.1533 12.6652 26.71L12.6629 26.7154C12.4296 27.2782 12.2008 27.8297 11.9473 28.2896Z" fill="white" stroke="black" stroke-width="0.337784"/>
<path d="M14.2173 17.7442C14.0873 17.6135 14.0873 17.41 14.2176 17.2848L18.3656 13.2963C18.5018 13.1654 18.7269 13.1705 18.8624 13.3076L21.6737 16.1519C21.7804 16.2598 21.801 16.4206 21.7243 16.5462L20.1916 19.0546C20.1743 19.083 20.1525 19.1086 20.1271 19.1305L17.9396 21.0207C17.8018 21.1397 17.5873 21.1299 17.4566 20.9985L14.2173 17.7442Z" fill="black"/>
<path d="M18.683 14.1401C18.7532 14.0787 18.8626 14.0835 18.9272 14.1507L20.8976 16.1999C20.9622 16.2672 20.9577 16.3714 20.8874 16.4328L18.416 18.5912C18.3457 18.6526 18.2363 18.6478 18.1717 18.5806L16.2014 16.5314C16.1367 16.4641 16.1412 16.3599 16.2115 16.2985L18.683 14.1401Z" fill="white" stroke="black" stroke-width="0.337784"/>
<path d="M14.3281 17.9761L16.811 20.5877" stroke="black" stroke-width="0.337784"/>
</g>
<defs>
<clipPath id="clip0_465_18705">
<rect width="54.0455" height="54.0455" fill="white" transform="translate(0 1.97729)"/>
</clipPath>
</defs>
</svg>
