<svg width="91" height="91" viewBox="0 0 91 91" fill="none" xmlns="http://www.w3.org/2000/svg">
<g id="icon_koecherfliege" clip-path="url(#clip0_385_21104)">
<rect width="91" height="91" fill="white"/>
<path id="fuehlerRechts" d="M65.295 22.3444L82.7308 10.6723L93.5586 13.9344L91.8203 23.1016L84.8434 23.1016L84.8434 17.9156" stroke="#0C0C0C" stroke-width="0.853125"/>
<path id="fuelerLinks" d="M61.4217 17.5036L69.9039 4.80947L68.9072 0.630348" stroke="#0C0C0C" stroke-width="0.853125"/>
<g id="fuelerIn">
<path id="Vector 33" d="M66.7817 21.1188L60.6372 26.0863" stroke="black" stroke-width="2.275"/>
<path id="Vector 32" d="M57.4492 22.7494L61.4305 17.6307" stroke="black" stroke-width="2.275"/>
</g>
<g id="Koerper">
<g id="Foots">
<path id="untenRechts" d="M14.2852 79.9389L10.8086 87.127L5.85409 91.0007L4.78031 93.0866" stroke="#0C0C0C" stroke-width="0.853125"/>
<path id="untenLinks" d="M8.60993 76.321L2.86481 78.0927L-2.34566 82.8857L-4.28616 82.774" stroke="#0C0C0C" stroke-width="0.853125"/>
<path id="obenLinks" d="M12.5205 69.3863L5.50536 74.458L-1.14462 74.9356L-3.00756 76.7256" stroke="#0C0C0C" stroke-width="0.853125"/>
<path id="obenRechts" d="M20.1605 75.979L17.0534 83.6507L16.3514 89.4997L14.6317 92.3573" stroke="#0C0C0C" stroke-width="0.853125"/>
<path id="Polygon 4" d="M5.5123 84.61C5.42193 84.5115 5.36693 84.3253 5.36865 84.0349C5.37033 83.7505 5.42609 83.395 5.52387 82.99C5.71919 82.1812 6.07568 81.201 6.46649 80.25C6.85682 79.3002 7.27927 78.3845 7.60433 77.706C7.76681 77.3668 7.90484 77.0871 8.00221 76.8923C8.02883 76.839 8.05241 76.7921 8.07262 76.7521L13.0175 81.1749C12.9774 81.2016 12.9298 81.2332 12.8754 81.2691C12.6875 81.3932 12.4179 81.5693 12.0911 81.7772C11.4372 82.193 10.5555 82.7355 9.64262 83.2428C8.72836 83.7508 7.78844 84.2205 7.01675 84.4937C6.63014 84.6305 6.29386 84.7151 6.0282 84.7337C5.75695 84.7526 5.59524 84.7005 5.5123 84.61Z" fill="#FF3437" stroke="#0C0C0C" stroke-width="0.284375"/>
<path id="Rectangle 25" d="M13.3693 81.0402C13.3439 81.0583 13.3196 81.072 13.2958 81.0812C12.8691 81.2459 12.3331 81.2135 11.7557 81.0186C11.1803 80.8243 10.5782 80.473 10.0312 80.0225C8.93023 79.1158 8.09086 77.8412 8.10213 76.6942L7.95995 76.6928L8.10213 76.6942C8.10268 76.6384 8.11892 76.5809 8.14904 76.5252L13.2862 67.0144C13.4137 66.7783 13.7249 66.7172 13.9322 66.8874L22.4679 73.8969C22.685 74.0752 22.6735 74.411 22.4447 74.574L13.3693 81.0402L13.4519 81.156L13.3693 81.0402Z" fill="#FFA970" stroke="#0C0C0C" stroke-width="0.284375"/>
</g>
<g id="Body">
<path id="Ellipse 15" d="M62.7398 47.8543C56.9364 55.2141 46.2443 56.4622 38.8578 50.6377C31.4714 44.8133 30.1915 34.125 35.9949 26.7651C41.7983 19.4053 52.4905 18.1572 59.8769 23.9817C67.2633 29.8061 68.5433 40.4944 62.7398 47.8543Z" fill="#FF0004" stroke="black" stroke-width="0.853125"/>
<path id="Rectangle 22" d="M28.7032 47.1108L33.0046 41.6465C35.4531 45.0943 37.6291 47.5867 40.2 49.6154C42.7722 51.6451 45.7202 53.1952 49.693 54.7835L45.3917 60.2477L28.7032 47.1108Z" fill="#443417" stroke="black" stroke-width="0.853125"/>
<path id="Rectangle 23" d="M28.2076 42.2125C28.2542 42.2068 28.3072 42.2273 28.3405 42.27C31.9527 46.9067 35.0964 50.1555 38.625 52.8664C42.1513 55.5754 46.0469 57.7356 51.1462 60.2074C51.1993 60.2331 51.231 60.2873 51.2302 60.3397L50.9084 81.6425C50.9071 81.735 50.819 81.8016 50.7296 81.7777L21.0375 73.8543C21.0098 73.8469 20.985 73.8314 20.9664 73.8097L8.92894 59.8263C8.91185 59.8064 8.90057 59.7822 8.89636 59.7564L6.49599 45.0107L6.07738 45.0788L6.49599 45.0107C6.48302 44.931 6.53895 44.8565 6.61911 44.8467L28.2076 42.2125Z" fill="#FF954F" stroke="black" stroke-width="0.853125"/>
<g id="eye">
<path id="Ellipse 11" d="M41.1152 25.6293C40.8469 22.068 44.0081 18.8546 48.2778 18.5329C52.5474 18.2113 56.1544 20.9148 56.4227 24.4762C56.691 28.0376 53.5297 31.251 49.2601 31.5726C44.9904 31.8943 41.3834 29.1907 41.1152 25.6293Z" fill="white" stroke="black" stroke-width="0.56875"/>
<path id="Ellipse 12" d="M43.2447 23.8545C42.8682 21.4404 44.9943 19.0059 48.1435 18.5148C51.2927 18.0237 54.0591 19.6952 54.4356 22.1094C54.8121 24.5236 52.686 26.958 49.5368 27.4491C46.3876 27.9402 43.6212 26.2687 43.2447 23.8545Z" fill="black" stroke="black" stroke-width="0.56875"/>
<path id="wisskreisLinks" d="M46.8491 20.3555C47.2977 19.996 47.8259 20.0581 48.0528 20.3413C48.2798 20.6246 48.225 21.1536 47.7764 21.513C47.3278 21.8724 46.7996 21.8104 46.5726 21.5271C46.3457 21.2439 46.4004 20.7149 46.8491 20.3555Z" fill="#FFFEFE" stroke="white" stroke-width="0.56875"/>
</g>
<g id="eye_2">
<path id="Ellipse 11_2" d="M64.6156 42.7881C68.013 41.2903 69.4096 36.8194 67.6158 32.7506C65.8219 28.6817 61.5792 26.6971 58.1818 28.1949C54.7844 29.6928 53.3878 34.1636 55.1817 38.2325C56.9756 42.3013 61.2182 44.2859 64.6156 42.7881Z" fill="white" stroke="black" stroke-width="0.56875"/>
<path id="Ellipse 12_2" d="M65.1877 39.964C67.5887 39.1261 68.7782 35.983 67.6875 32.8573C66.5968 29.7315 63.7101 28.0107 61.3091 28.8485C58.9081 29.6864 57.7186 32.8295 58.8093 35.9552C59.9 39.081 62.7867 40.8018 65.1877 39.964Z" fill="black" stroke="black" stroke-width="0.56875"/>
<path id="weisskleisRechts" d="M66.0368 36.648C66.6096 36.5998 66.95 36.1912 66.9196 35.8295C66.8892 35.4679 66.4853 35.1219 65.9125 35.17C65.3397 35.2182 64.9993 35.6269 65.0297 35.9885C65.0601 36.3502 65.464 36.6962 66.0368 36.648Z" fill="#FFFEFE" stroke="white" stroke-width="0.56875"/>
</g>
</g>
</g>
<g id="Lupe">
<rect id="lupengriff" x="74.0793" y="70.8633" width="64.7267" height="17.4049" rx="1.70625" transform="rotate(50.6601 74.0793 70.8633)" fill="#170101" stroke="#020202" stroke-width="1.1375"/>
<rect id="lupenkopf" x="50.6491" y="80.0234" width="31.316" height="11.8582" rx="1.99063" transform="rotate(-34.6359 50.6491 80.0234)" fill="black" stroke="white" stroke-width="1.70625"/>
<g id="lupenkreis">
<mask id="path-22-outside-1_385_21104" maskUnits="userSpaceOnUse" x="-2.22661" y="-2.82951" width="91.0069" height="91.0069" fill="black">
<rect fill="white" x="-2.22661" y="-2.82951" width="91.0069" height="91.0069"/>
<path d="M82.6955 48.0819C79.798 69.784 59.8561 85.0282 38.154 82.1307C16.4519 79.2332 1.20773 59.2913 4.10521 37.5892C7.00269 15.8871 26.9446 0.642909 48.6467 3.54039C70.3488 6.43787 85.593 26.3798 82.6955 48.0819ZM12.9379 38.7685C10.6917 55.5924 22.5093 71.0518 39.3333 73.298C56.1572 75.5442 71.6167 63.7266 73.8629 46.9026C76.109 30.0787 64.2914 14.6192 47.4675 12.3731C30.6435 10.1269 15.1841 21.9445 12.9379 38.7685Z"/>
</mask>
<path d="M82.6955 48.0819C79.798 69.784 59.8561 85.0282 38.154 82.1307C16.4519 79.2332 1.20773 59.2913 4.10521 37.5892C7.00269 15.8871 26.9446 0.642909 48.6467 3.54039C70.3488 6.43787 85.593 26.3798 82.6955 48.0819ZM12.9379 38.7685C10.6917 55.5924 22.5093 71.0518 39.3333 73.298C56.1572 75.5442 71.6167 63.7266 73.8629 46.9026C76.109 30.0787 64.2914 14.6192 47.4675 12.3731C30.6435 10.1269 15.1841 21.9445 12.9379 38.7685Z" fill="black"/>
<path d="M82.6955 48.0819C79.798 69.784 59.8561 85.0282 38.154 82.1307C16.4519 79.2332 1.20773 59.2913 4.10521 37.5892C7.00269 15.8871 26.9446 0.642909 48.6467 3.54039C70.3488 6.43787 85.593 26.3798 82.6955 48.0819ZM12.9379 38.7685C10.6917 55.5924 22.5093 71.0518 39.3333 73.298C56.1572 75.5442 71.6167 63.7266 73.8629 46.9026C76.109 30.0787 64.2914 14.6192 47.4675 12.3731C30.6435 10.1269 15.1841 21.9445 12.9379 38.7685Z" stroke="black" stroke-width="1.1375" mask="url(#path-22-outside-1_385_21104)"/>
</g>
</g>
<g id="licht">
<path id="Ellipse 13" d="M20.1192 44.3038L20.1069 44.3262L20.0988 44.3504L19.1615 47.1612C18.4238 44.3164 18.2575 41.2995 18.6831 38.375C19.1532 35.1442 20.3273 32.1519 22.0758 29.7142C22.9577 28.4847 23.7181 27.5804 24.6883 26.7884C25.658 25.9968 26.8497 25.3076 28.6042 24.5255C31.0037 23.6127 33.5616 23.4831 36.0331 24.145L33.5889 28.29C32.8707 28.1543 32.1463 28.3942 31.5022 28.7532C30.7882 29.1512 30.1233 29.7232 29.596 30.21C29.3992 30.3916 29.1705 30.5971 28.9242 30.8183C28.5297 31.1727 28.0901 31.5676 27.6639 31.9704C26.9675 32.6287 26.2738 33.3382 25.8006 33.998C24.8874 35.271 23.4361 37.3495 22.5557 38.9471C22.1126 39.7513 21.7164 40.7069 21.3278 41.6442L21.324 41.6533C20.9312 42.6009 20.5459 43.5294 20.1192 44.3038Z" fill="white" stroke="black" stroke-width="0.56875"/>
<path id="Rectangle 20" d="M23.9403 26.5478C23.7213 26.3277 23.7214 25.9851 23.9407 25.7743L30.9251 19.0586C31.1543 18.8382 31.5333 18.8468 31.7615 19.0777L36.4951 23.8667C36.6748 24.0485 36.7095 24.3192 36.5802 24.5308L33.9996 28.7543C33.9704 28.802 33.9338 28.8451 33.8909 28.8821L30.2076 32.0648C29.9757 32.2651 29.6146 32.2485 29.3944 32.0273L23.9403 26.5478Z" fill="white"/>
<path id="Rectangle 21" d="M31.4601 20.4794C31.5784 20.376 31.7626 20.3841 31.8714 20.4973L35.189 23.9477C35.2979 24.0609 35.2902 24.2364 35.1719 24.3397L31.0106 27.974C30.8923 28.0773 30.7081 28.0693 30.5993 27.9561L27.2817 24.5057C27.1728 24.3925 27.1805 24.217 27.2988 24.1137L31.4601 20.4794Z" fill="white" stroke="black" stroke-width="0.56875"/>
<path id="Vector 29" d="M24.125 26.9383L28.3055 31.3357" stroke="black" stroke-width="0.56875"/>
</g>
</g>
<defs>
<clipPath id="clip0_385_21104">
<rect width="91" height="91" fill="white"/>
</clipPath>
</defs>
</svg>
