<svg width="55" height="55" viewBox="0 0 55 55" fill="none" xmlns="http://www.w3.org/2000/svg">
<g id="icon_koecherfliege" clip-path="url(#clip0_616_9757)">
<rect width="54.0455" height="54.0455" fill="black"/>
<path id="fuehlerRechts" d="M38.7798 13.2705L49.135 6.33834L55.5657 8.27572L54.5333 13.7202L50.3897 13.7202L50.3897 10.6402" stroke="white" stroke-width="0.506676"/>
<path id="fuelerLinks" d="M36.4786 10.3955L41.5162 2.85638L40.9243 0.374376" stroke="white" stroke-width="0.506676"/>
<g id="fuelerIn">
<path id="Vector 33" d="M39.663 12.5425L36.0138 15.4928" stroke="white" stroke-width="1.35114"/>
<path id="Vector 32" d="M34.1211 13.511L36.4856 10.4709" stroke="white" stroke-width="1.35114"/>
</g>
<g id="Koerper">
<g id="Foots">
<path id="untenRechts" d="M8.48481 47.4762L6.42 51.7453L3.47751 54.0458L2.83979 55.2847" stroke="white" stroke-width="0.506676"/>
<path id="untenLinks" d="M5.11339 45.3275L1.70132 46.3797L-1.3932 49.2263L-2.54568 49.16" stroke="white" stroke-width="0.506676"/>
<path id="obenLinks" d="M7.43528 41.2089L3.26895 44.221L-0.680511 44.5047L-1.78692 45.5678" stroke="white" stroke-width="0.506676"/>
<path id="obenRechts" d="M11.9746 45.1244L10.1293 49.6807L9.7124 53.1544L8.69104 54.8516" stroke="white" stroke-width="0.506676"/>
<path id="Polygon 4" d="M3.27498 50.2504C3.22131 50.1918 3.18864 50.0813 3.18966 49.9088C3.19066 49.7399 3.22378 49.5288 3.28185 49.2883C3.39785 48.8079 3.60957 48.2258 3.84168 47.661C4.0735 47.0969 4.32439 46.553 4.51745 46.15C4.61394 45.9486 4.69592 45.7825 4.75375 45.6668C4.76956 45.6351 4.78357 45.6073 4.79557 45.5835L7.73235 48.2102C7.70853 48.2261 7.68029 48.2449 7.64796 48.2662C7.53639 48.3399 7.37624 48.4445 7.18215 48.5679C6.79383 48.8149 6.27018 49.1371 5.728 49.4384C5.18502 49.7401 4.62679 50.019 4.16848 50.1813C3.93887 50.2626 3.73915 50.3128 3.58137 50.3238C3.42028 50.335 3.32424 50.3041 3.27498 50.2504Z" fill="#FF3437" stroke="black" stroke-width="0.168892"/>
<path id="Rectangle 25" d="M7.89696 48.1546C7.64354 48.2524 7.32521 48.2332 6.98229 48.1174C6.64054 48.002 6.28297 47.7934 5.9581 47.5258C5.30423 46.9873 4.80572 46.2303 4.81242 45.5491C4.81274 45.516 4.82239 45.4819 4.84028 45.4487L7.89126 39.8002C7.96699 39.66 8.1518 39.6237 8.27494 39.7248L13.3443 43.8878C13.4733 43.9937 13.4664 44.1931 13.3306 44.2899L7.94065 48.1303C7.92554 48.141 7.91112 48.1491 7.89696 48.1546Z" fill="#FFA970" stroke="black" stroke-width="0.168892"/>
</g>
<g id="Body">
<path id="Ellipse 15" d="M37.2625 28.4209C33.8158 32.7919 27.4657 33.5332 23.0788 30.074C18.692 26.6149 17.9318 20.267 21.3785 15.8959C24.8252 11.5249 31.1753 10.7836 35.5622 14.2428C39.949 17.7019 40.7092 24.0498 37.2625 28.4209Z" fill="#FF0004" stroke="black" stroke-width="0.506676"/>
<path id="Rectangle 22" d="M17.0475 27.9794L19.6021 24.7341C21.0563 26.7818 22.3486 28.262 23.8755 29.4668C25.4032 30.6723 27.154 31.5929 29.5135 32.5362L26.9589 35.7814L17.0475 27.9794Z" fill="#443417" stroke="white" stroke-width="0.506676"/>
<path id="Rectangle 23" d="M16.8317 25.1044C18.977 27.8581 20.8441 29.7876 22.9397 31.3976C25.034 33.0065 27.3476 34.2895 30.3761 35.7575C30.4076 35.7728 30.4265 35.805 30.426 35.8361L30.2349 48.4879C30.2341 48.5429 30.1818 48.5824 30.1287 48.5682L12.4944 43.8625C12.4779 43.8581 12.4632 43.8489 12.4521 43.836L5.30303 35.5311C5.29288 35.5193 5.28618 35.505 5.28368 35.4896L3.85809 26.7321C3.85038 26.6847 3.8836 26.6405 3.93121 26.6347L16.7527 25.0702C16.7804 25.0668 16.8119 25.079 16.8317 25.1044Z" fill="#FF954F" stroke="white" stroke-width="0.506676"/>
<g id="eye">
<path id="Ellipse 11" d="M24.4204 15.2214C24.261 13.1063 26.1385 11.1978 28.6743 11.0068C31.21 10.8158 33.3522 12.4214 33.5116 14.5365C33.6709 16.6517 31.7934 18.5601 29.2577 18.7511C26.7219 18.9422 24.5797 17.3365 24.4204 15.2214Z" fill="white" stroke="black" stroke-width="0.337784"/>
<path id="Ellipse 12" d="M25.6845 14.1673C25.4609 12.7335 26.7236 11.2877 28.594 10.996C30.4643 10.7044 32.1073 11.6971 32.3309 13.1309C32.5545 14.5647 31.2918 16.0105 29.4214 16.3022C27.5511 16.5939 25.9081 15.6011 25.6845 14.1673Z" fill="black" stroke="white" stroke-width="0.337784"/>
<path id="wisskreisLinks" d="M27.8252 12.0892C28.0916 11.8757 28.4053 11.9126 28.5401 12.0808C28.6748 12.249 28.6424 12.5632 28.3759 12.7767C28.1095 12.9901 27.7958 12.9533 27.661 12.7851C27.5262 12.6168 27.5587 12.3027 27.8252 12.0892Z" fill="white" stroke="white" stroke-width="0.337784"/>
</g>
<g id="eye_2">
<path id="Ellipse 11_2" d="M38.3767 25.4121C40.3944 24.5225 41.2239 21.8673 40.1585 19.4508C39.0931 17.0342 36.5734 15.8556 34.5556 16.7452C32.5379 17.6347 31.7084 20.29 32.7738 22.7065C33.8392 25.123 36.359 26.3017 38.3767 25.4121Z" fill="white" stroke="black" stroke-width="0.337784"/>
<path id="Ellipse 12_2" d="M38.7175 23.7348C40.1435 23.2373 40.8499 21.3705 40.2022 19.5141C39.5544 17.6577 37.84 16.6358 36.414 17.1333C34.988 17.6309 34.2816 19.4976 34.9294 21.354C35.5772 23.2104 37.2916 24.2324 38.7175 23.7348Z" fill="black" stroke="white" stroke-width="0.337784"/>
<path id="weisskleisRechts" d="M39.2199 21.7655C39.5601 21.7369 39.7623 21.4942 39.7442 21.2794C39.7262 21.0646 39.4863 20.8591 39.1461 20.8877C38.8059 20.9163 38.6037 21.159 38.6218 21.3738C38.6399 21.5886 38.8798 21.7941 39.2199 21.7655Z" fill="white" stroke="white" stroke-width="0.337784"/>
</g>
</g>
</g>
<g id="Lupe">
<rect id="lupengriff" x="43.9963" y="42.0862" width="38.4416" height="10.3369" rx="1.01335" transform="rotate(50.6601 43.9963 42.0862)" fill="#01B0C4" stroke="white" stroke-width="0.675568"/>
<rect id="lupenkopf" x="30.0803" y="47.5264" width="18.5988" height="7.04264" rx="1.18224" transform="rotate(-34.6359 30.0803 47.5264)" fill="#01B0C4" stroke="black" stroke-width="1.01335"/>
<g id="lupenkreis">
<mask id="path-22-outside-1_616_9757" maskUnits="userSpaceOnUse" x="-1.7887" y="-2.13673" width="55.0536" height="55.0536" fill="black">
<rect fill="white" x="-1.7887" y="-2.13673" width="55.0536" height="55.0536"/>
<path d="M49.1141 28.5561C47.3933 41.4451 35.5497 50.4988 22.6606 48.7779C9.77162 47.0571 0.718016 35.2135 2.43885 22.3244C4.15968 9.43543 16.0033 0.381826 28.8923 2.10266C41.7813 3.82349 50.8349 15.6671 49.1141 28.5561ZM7.68462 23.0248C6.35059 33.0167 13.3692 42.1981 23.361 43.5321C33.3529 44.8662 42.5343 37.8476 43.8683 27.8558C45.2024 17.8639 38.1838 8.68246 28.1919 7.34843C18.2001 6.0144 9.01865 13.033 7.68462 23.0248Z"/>
</mask>
<path d="M49.1141 28.5561C47.3933 41.4451 35.5497 50.4988 22.6606 48.7779C9.77162 47.0571 0.718016 35.2135 2.43885 22.3244C4.15968 9.43543 16.0033 0.381826 28.8923 2.10266C41.7813 3.82349 50.8349 15.6671 49.1141 28.5561ZM7.68462 23.0248C6.35059 33.0167 13.3692 42.1981 23.361 43.5321C33.3529 44.8662 42.5343 37.8476 43.8683 27.8558C45.2024 17.8639 38.1838 8.68246 28.1919 7.34843C18.2001 6.0144 9.01865 13.033 7.68462 23.0248Z" fill="#01B0C4"/>
<path d="M49.1141 28.5561C47.3933 41.4451 35.5497 50.4988 22.6606 48.7779C9.77162 47.0571 0.718016 35.2135 2.43885 22.3244C4.15968 9.43543 16.0033 0.381826 28.8923 2.10266C41.7813 3.82349 50.8349 15.6671 49.1141 28.5561ZM7.68462 23.0248C6.35059 33.0167 13.3692 42.1981 23.361 43.5321C33.3529 44.8662 42.5343 37.8476 43.8683 27.8558C45.2024 17.8639 38.1838 8.68246 28.1919 7.34843C18.2001 6.0144 9.01865 13.033 7.68462 23.0248Z" stroke="#0D0000" stroke-width="0.675568" mask="url(#path-22-outside-1_616_9757)"/>
</g>
</g>
<g id="licht">
<path id="Ellipse 13" d="M11.9473 26.3123L11.94 26.3256L11.9352 26.34L11.3786 28.0093C10.9405 26.3197 10.8417 24.528 11.0945 22.7911C11.3737 20.8724 12.0709 19.0952 13.1094 17.6474C13.6332 16.9172 14.0848 16.3801 14.661 15.9098C15.2369 15.4396 15.9446 15.0303 16.9866 14.5658C18.4117 14.0237 19.9309 13.9467 21.3987 14.3399L19.9471 16.8016C19.5205 16.721 19.0903 16.8635 18.7078 17.0767C18.2837 17.3131 17.8889 17.6528 17.5757 17.9419C17.4588 18.0498 17.323 18.1718 17.1767 18.3032C16.9424 18.5136 16.6813 18.7482 16.4282 18.9874C16.0146 19.3784 15.6026 19.7998 15.3216 20.1916C14.7792 20.9476 13.9173 22.1821 13.3944 23.1309C13.1312 23.6085 12.8959 24.1761 12.6652 24.7327L12.6629 24.7381C12.4296 25.3009 12.2008 25.8524 11.9473 26.3123Z" fill="white" stroke="black" stroke-width="0.337784"/>
<path id="Rectangle 20" d="M14.2173 15.7669C14.0873 15.6362 14.0873 15.4327 14.2176 15.3075L18.3656 11.319C18.5018 11.1881 18.7269 11.1932 18.8624 11.3303L21.6737 14.1746C21.7804 14.2825 21.801 14.4433 21.7243 14.5689L20.1916 17.0773C20.1743 17.1057 20.1525 17.1313 20.1271 17.1533L17.9396 19.0434C17.8018 19.1625 17.5873 19.1526 17.4566 19.0212L14.2173 15.7669Z" fill="black"/>
<path id="Rectangle 21" d="M18.9272 12.1734L20.8976 14.2226C20.9622 14.2899 20.9577 14.3941 20.8874 14.4555L18.416 16.6139C18.3457 16.6753 18.2363 16.6705 18.1717 16.6033L16.2014 14.5541C16.1367 14.4868 16.1412 14.3826 16.2115 14.3212L18.683 12.1628C18.7532 12.1014 18.8626 12.1062 18.9272 12.1734Z" fill="white" stroke="black" stroke-width="0.337784"/>
<path id="Vector 29" d="M14.3281 15.9988L16.811 18.6104" stroke="black" stroke-width="0.337784"/>
</g>
</g>
<defs>
<clipPath id="clip0_616_9757">
<rect width="54.0455" height="54.0455" fill="white"/>
</clipPath>
</defs>
</svg>
