<svg width="1432" height="795" viewBox="0 0 1432 795" fill="none" xmlns="http://www.w3.org/2000/svg">
<g clip-path="url(#clip0_539_9759)">
<rect width="1432" height="795" transform="matrix(1 0 0 -1 0 795)" fill="#01B0C4"/>
<path d="M1345.5 784.5C1330.5 727 1259.81 585 1153.5 585C1047.19 585 909 769.5 831.5 769.5C831.5 846.468 1006.19 891 1112.5 891C1218.81 891 1345.5 861.468 1345.5 784.5Z" fill="white"/>
<path d="M1054.44 723.003C1181 473.5 973.5 750 799.618 766C672.915 766 563.219 625.507 563.219 701.745C563.219 777.983 669.058 839.786 799.618 839.786C930.177 839.786 1054.44 799.241 1054.44 723.003Z" fill="white"/>
<path d="M412.99 679.919C412.99 603.681 262.361 712.674 155.5 734.5C48.6381 756.326 -89.0039 581.855 -89.0039 658.093C-89.0039 734.331 -22.8477 821.928 107.712 821.928C238.271 821.928 412.99 756.157 412.99 679.919Z" fill="white"/>
<path d="M714.501 786.5C687.001 761.5 546.102 605 415.543 605C284.983 605 256.001 744.5 116.001 744.5C41.0013 800.491 284.983 914.05 415.543 914.05C546.102 914.05 770.913 837.783 714.501 786.5Z" fill="white"/>
<path d="M1496.63 711.232C1496.63 664.986 1452.41 727.255 1381.55 727.255C1310.68 727.255 1233 583.754 1233 630C1233 676.246 1299.66 818.243 1370.53 818.243C1441.39 818.243 1496.63 757.478 1496.63 711.232Z" fill="white"/>
</g>
<defs>
<clipPath id="clip0_539_9759">
<rect width="1432" height="795" fill="white" transform="matrix(1 0 0 -1 0 795)"/>
</clipPath>
</defs>
</svg>
