<svg width="1432" height="524" viewBox="0 0 1432 524" fill="none" xmlns="http://www.w3.org/2000/svg">
<g clip-path="url(#clip0_577_9773)">
<rect width="1432" height="523.253" fill="#656565"/>
<path d="M1363.97 7.36992C1363.97 64.3528 1264.48 115.932 1141.75 115.932C1019.01 115.932 919.52 64.3528 919.52 7.36992C919.52 -49.6129 1019.01 -95.8066 1141.75 -95.8066C1264.48 -95.8066 1363.97 -49.6129 1363.97 7.36992Z" fill="black"/>
<path d="M1054.44 71.9971C1054.44 148.235 952.115 41.3843 799.618 24.3772C672.915 24.3772 563.219 169.494 563.219 93.256C563.219 17.018 669.058 -44.7852 799.618 -44.7852C930.177 -44.7852 1054.44 -4.24093 1054.44 71.9971Z" fill="black"/>
<path d="M406 103.5C406 179.738 270.5 176.5 182.5 76.5C94.5 -23.5 -97 166.073 -97 89.8353C-97 13.5973 -30.8438 -74 99.7158 -74C230.275 -74 406 27.262 406 103.5Z" fill="black"/>
<path d="M641.798 28.0412C641.798 104.279 535.959 166.082 405.399 166.082C274.839 166.082 188.5 104.279 188.5 28.0412C188.5 -48.1969 274.839 -110 405.399 -110C535.959 -110 641.798 -48.1969 641.798 28.0412Z" fill="black"/>
<path d="M1496.63 83.7681C1496.63 130.014 1452.41 67.745 1381.54 67.745C1310.68 67.745 1224.51 130.014 1224.51 83.7681C1224.51 37.5222 1299.66 -23.2432 1370.52 -23.2432C1441.39 -23.2432 1496.63 37.5222 1496.63 83.7681Z" fill="black"/>
<path d="M42.0729 504.542C46.2095 447.71 149.185 403.489 271.594 412.399C394.002 421.308 489.49 479.974 485.353 536.807C481.217 593.639 378.632 632.488 256.223 623.579C133.815 614.669 37.9364 561.375 42.0729 504.542Z" fill="black"/>
<path d="M318.603 469.681C223.93 359.701 469.494 464.922 620.354 492.954C746.723 502.152 866.664 365.381 861.13 441.418C855.595 517.455 745.549 571.412 615.333 561.934C485.118 552.456 313.069 545.718 318.603 469.681Z" fill="black"/>
<path d="M1012.55 430.556C1018.08 354.519 1141.06 418.026 1246.06 447.552C1351.05 477.078 1520.33 369.192 1514.8 445.229C1509.27 521.266 1436.92 603.829 1306.71 594.352C1176.49 584.874 1007.01 506.593 1012.55 430.556Z" fill="black"/>
<ellipse cx="1003.03" cy="526.207" rx="236.399" ry="138.041" transform="rotate(-175.837 1003.03 526.207)" fill="black"/>
<path d="M-68.9771 422.628C-64.3605 359.2 -24.5697 437.237 46.1091 442.381C116.788 447.526 224.587 378.954 219.97 442.382C215.354 505.81 116.788 583.696 46.1091 578.552C-24.5697 573.407 -73.5938 486.056 -68.9771 422.628Z" fill="black"/>
</g>
<defs>
<clipPath id="clip0_577_9773">
<rect width="1432" height="523.253" fill="white"/>
</clipPath>
</defs>
</svg>
