<svg width="1432" height="524" viewBox="0 0 1432 524" fill="none" xmlns="http://www.w3.org/2000/svg">
<g clip-path="url(#clip0_577_9773)">
<rect width="1432" height="523.253" fill="#01B0C4"/>
<path d="M1363.97 7.36977C1363.97 64.3526 1264.48 115.932 1141.75 115.932C1019.01 115.932 919.52 64.3526 919.52 7.36977C919.52 -49.6131 1019.01 -95.8068 1141.75 -95.8068C1264.48 -95.8068 1363.97 -49.6131 1363.97 7.36977Z" fill="white"/>
<path d="M1054.44 71.9969C1054.44 148.235 952.115 41.384 799.618 24.3769C672.915 24.3769 563.219 169.494 563.219 93.2558C563.219 17.0177 669.058 -44.7854 799.618 -44.7854C930.177 -44.7854 1054.44 -4.24117 1054.44 71.9969Z" fill="white"/>
<path d="M406 103.5C406 179.738 270.5 176.5 182.5 76.5C94.5 -23.5 -97 166.073 -97 89.8353C-97 13.5973 -30.8438 -74 99.7158 -74C230.275 -74 406 27.262 406 103.5Z" fill="white"/>
<path d="M641.798 28.0412C641.798 104.279 535.959 166.082 405.399 166.082C274.839 166.082 188.5 104.279 188.5 28.0412C188.5 -48.1969 274.839 -110 405.399 -110C535.959 -110 641.798 -48.1969 641.798 28.0412Z" fill="white"/>
<path d="M1496.63 83.7682C1496.63 130.014 1452.41 67.7451 1381.54 67.7451C1310.68 67.7451 1224.51 130.014 1224.51 83.7682C1224.51 37.5223 1299.66 -23.243 1370.52 -23.243C1441.39 -23.243 1496.63 37.5223 1496.63 83.7682Z" fill="white"/>
<path d="M42.0729 504.542C46.2095 447.709 149.185 403.489 271.594 412.398C394.002 421.308 489.49 479.973 485.353 536.806C481.217 593.638 378.632 632.488 256.223 623.578C133.815 614.669 37.9364 561.374 42.0729 504.542Z" fill="white"/>
<path d="M318.603 469.68C223.93 359.701 469.494 464.921 620.354 492.954C746.723 502.151 866.664 365.381 861.13 441.417C855.595 517.454 745.549 571.411 615.333 561.934C485.118 552.456 313.069 545.717 318.603 469.68Z" fill="white"/>
<path d="M1012.55 430.555C1018.08 354.518 1141.06 418.026 1246.06 447.551C1351.05 477.077 1520.33 369.191 1514.8 445.228C1509.27 521.265 1436.92 603.828 1306.71 594.351C1176.49 584.873 1007.01 506.592 1012.55 430.555Z" fill="white"/>
<ellipse cx="1003.03" cy="526.207" rx="236.399" ry="138.041" transform="rotate(-175.837 1003.03 526.207)" fill="white"/>
<path d="M-68.9771 422.627C-64.3605 359.199 -24.5697 437.237 46.1091 442.381C116.788 447.525 224.587 378.953 219.97 442.381C215.354 505.809 116.788 583.696 46.1091 578.551C-24.5697 573.407 -73.5938 486.055 -68.9771 422.627Z" fill="white"/>
</g>
<defs>
<clipPath id="clip0_577_9773">
<rect width="1432" height="523.253" fill="white"/>
</clipPath>
</defs>
</svg>
