<svg width="143" height="38" viewBox="0 0 143 38" fill="none" xmlns="http://www.w3.org/2000/svg">
<rect x="0.375" y="0.375" width="141.75" height="36.75" rx="18.375" fill="white"/>
<rect x="0.375" y="0.375" width="141.75" height="36.75" rx="18.375" stroke="black" stroke-width="0.75"/>
<path d="M14.6412 22.25V14.6136H15.7934V21.2582H19.2536V22.25H14.6412ZM22.9469 22.3656C22.3826 22.3656 21.8966 22.245 21.4889 22.0039C21.0838 21.7603 20.7706 21.4185 20.5493 20.9785C20.3306 20.536 20.2212 20.0178 20.2212 19.4237C20.2212 18.837 20.3306 18.32 20.5493 17.8725C20.7706 17.4251 21.0788 17.0758 21.474 16.8248C21.8718 16.5737 22.3366 16.4482 22.8686 16.4482C23.1917 16.4482 23.5049 16.5016 23.8082 16.6085C24.1115 16.7154 24.3837 16.8832 24.6248 17.1119C24.8659 17.3406 25.0561 17.6376 25.1953 18.003C25.3345 18.3659 25.4041 18.8072 25.4041 19.3267V19.7219H20.8513V18.8867H24.3116C24.3116 18.5934 24.2519 18.3336 24.1326 18.1074C24.0133 17.8787 23.8455 17.6985 23.6292 17.5668C23.4154 17.435 23.1644 17.3691 22.876 17.3691C22.5628 17.3691 22.2894 17.4462 22.0557 17.6003C21.8245 17.752 21.6456 17.9508 21.5188 18.1969C21.3945 18.4405 21.3323 18.7053 21.3323 18.9911V19.6436C21.3323 20.0265 21.3995 20.3521 21.5337 20.6206C21.6704 20.889 21.8606 21.0941 22.1042 21.2358C22.3478 21.375 22.6324 21.4446 22.9581 21.4446C23.1693 21.4446 23.362 21.4148 23.536 21.3551C23.71 21.293 23.8604 21.201 23.9872 21.0792C24.1139 20.9574 24.2109 20.807 24.278 20.628L25.3332 20.8182C25.2487 21.1289 25.0971 21.4011 24.8783 21.6348C24.6621 21.8659 24.3899 22.0462 24.0617 22.1754C23.7361 22.3022 23.3645 22.3656 22.9469 22.3656ZM26.6411 22.25V16.5227H27.7559V22.25H26.6411ZM27.2041 15.639C27.0102 15.639 26.8437 15.5744 26.7045 15.4451C26.5677 15.3134 26.4994 15.1568 26.4994 14.9753C26.4994 14.7914 26.5677 14.6348 26.7045 14.5055C26.8437 14.3738 27.0102 14.3079 27.2041 14.3079C27.398 14.3079 27.5633 14.3738 27.7 14.5055C27.8392 14.6348 27.9088 14.7914 27.9088 14.9753C27.9088 15.1568 27.8392 15.3134 27.7 15.4451C27.5633 15.5744 27.398 15.639 27.2041 15.639ZM31.6683 22.3656C31.1139 22.3656 30.6367 22.2401 30.2365 21.989C29.8387 21.7354 29.533 21.3862 29.3192 20.9412C29.1054 20.4963 28.9985 19.9867 28.9985 19.4125C28.9985 18.8308 29.1079 18.3175 29.3267 17.8725C29.5454 17.4251 29.8536 17.0758 30.2514 16.8248C30.6491 16.5737 31.1177 16.4482 31.6571 16.4482C32.0921 16.4482 32.4799 16.5289 32.8204 16.6905C33.161 16.8496 33.4357 17.0733 33.6445 17.3617C33.8558 17.65 33.9813 17.9869 34.0211 18.3722H32.936C32.8764 18.1037 32.7397 17.8725 32.5259 17.6786C32.3146 17.4847 32.0312 17.3878 31.6757 17.3878C31.365 17.3878 31.0928 17.4698 30.8592 17.6339C30.628 17.7955 30.4478 18.0266 30.3185 18.3274C30.1892 18.6257 30.1246 18.9787 30.1246 19.3864C30.1246 19.804 30.188 20.1644 30.3148 20.4677C30.4415 20.771 30.6205 21.0059 30.8517 21.1724C31.0854 21.339 31.36 21.4222 31.6757 21.4222C31.887 21.4222 32.0784 21.3837 32.25 21.3066C32.424 21.2271 32.5694 21.114 32.6862 20.9673C32.8055 20.8207 32.8888 20.6442 32.936 20.4379H34.0211C33.9813 20.8082 33.8608 21.1388 33.6594 21.4297C33.4581 21.7205 33.1883 21.9492 32.8503 22.1158C32.5147 22.2823 32.1207 22.3656 31.6683 22.3656ZM36.3282 18.8494V22.25H35.2133V14.6136H36.3133V17.4549H36.3841C36.5184 17.1467 36.7235 16.9018 36.9994 16.7203C37.2753 16.5389 37.6357 16.4482 38.0807 16.4482C38.4735 16.4482 38.8165 16.5289 39.1098 16.6905C39.4056 16.8521 39.6343 17.0932 39.7959 17.4139C39.96 17.7321 40.042 18.1298 40.042 18.6071V22.25H38.9271V18.7413C38.9271 18.3212 38.819 17.9956 38.6027 17.7644C38.3865 17.5307 38.0857 17.4139 37.7004 17.4139C37.4369 17.4139 37.2007 17.4698 36.9919 17.5817C36.7856 17.6935 36.6228 17.8576 36.5035 18.0739C36.3866 18.2876 36.3282 18.5462 36.3282 18.8494ZM44.2032 16.5227V17.4176H41.0748V16.5227H44.2032ZM41.9138 15.1506H43.0287V20.5684C43.0287 20.7846 43.061 20.9474 43.1256 21.0568C43.1903 21.1637 43.2735 21.237 43.3754 21.2768C43.4798 21.3141 43.593 21.3327 43.7148 21.3327C43.8042 21.3327 43.8825 21.3265 43.9497 21.3141C44.0168 21.3017 44.069 21.2917 44.1063 21.2843L44.3076 22.2053C44.243 22.2301 44.151 22.255 44.0317 22.2798C43.9124 22.3072 43.7632 22.3221 43.5843 22.3246C43.2909 22.3295 43.0175 22.2773 42.7639 22.168C42.5104 22.0586 42.3053 21.8896 42.1487 21.6609C41.9921 21.4322 41.9138 21.1451 41.9138 20.7995V15.1506ZM47.8434 22.3656C47.2791 22.3656 46.7931 22.245 46.3854 22.0039C45.9802 21.7603 45.667 21.4185 45.4458 20.9785C45.2271 20.536 45.1177 20.0178 45.1177 19.4237C45.1177 18.837 45.2271 18.32 45.4458 17.8725C45.667 17.4251 45.9753 17.0758 46.3705 16.8248C46.7682 16.5737 47.2331 16.4482 47.765 16.4482C48.0882 16.4482 48.4014 16.5016 48.7047 16.6085C49.0079 16.7154 49.2801 16.8832 49.5213 17.1119C49.7624 17.3406 49.9525 17.6376 50.0918 18.003C50.231 18.3659 50.3006 18.8072 50.3006 19.3267V19.7219H45.7478V18.8867H49.2081C49.2081 18.5934 49.1484 18.3336 49.0291 18.1074C48.9098 17.8787 48.742 17.6985 48.5257 17.5668C48.3119 17.435 48.0609 17.3691 47.7725 17.3691C47.4593 17.3691 47.1859 17.4462 46.9522 17.6003C46.721 17.752 46.542 17.9508 46.4153 18.1969C46.291 18.4405 46.2288 18.7053 46.2288 18.9911V19.6436C46.2288 20.0265 46.2959 20.3521 46.4302 20.6206C46.5669 20.889 46.7571 21.0941 47.0007 21.2358C47.2443 21.375 47.5289 21.4446 47.8545 21.4446C48.0658 21.4446 48.2585 21.4148 48.4325 21.3551C48.6065 21.293 48.7569 21.201 48.8837 21.0792C49.0104 20.9574 49.1074 20.807 49.1745 20.628L50.2297 20.8182C50.1452 21.1289 49.9936 21.4011 49.7748 21.6348C49.5585 21.8659 49.2864 22.0462 48.9582 22.1754C48.6326 22.3022 48.261 22.3656 47.8434 22.3656ZM58.5708 16.6197C58.531 16.2667 58.367 15.9933 58.0786 15.7994C57.7903 15.603 57.4273 15.5048 56.9898 15.5048C56.6766 15.5048 56.4057 15.5545 56.177 15.6539C55.9483 15.7509 55.7706 15.8851 55.6438 16.0566C55.5195 16.2257 55.4573 16.4183 55.4573 16.6346C55.4573 16.8161 55.4996 16.9727 55.5841 17.1044C55.6711 17.2362 55.7842 17.3468 55.9234 17.4363C56.0651 17.5233 56.2168 17.5966 56.3783 17.6562C56.5399 17.7134 56.6953 17.7607 56.8444 17.7979L57.5902 17.9918C57.8338 18.0515 58.0836 18.1323 58.3396 18.2342C58.5957 18.3361 58.8331 18.4703 59.0518 18.6369C59.2706 18.8034 59.447 19.0098 59.5813 19.2559C59.718 19.502 59.7864 19.7965 59.7864 20.1396C59.7864 20.5721 59.6745 20.9561 59.4508 21.2917C59.2295 21.6273 58.9076 21.892 58.485 22.0859C58.0649 22.2798 57.5566 22.3768 56.96 22.3768C56.3883 22.3768 55.8936 22.286 55.476 22.1046C55.0584 21.9231 54.7315 21.6658 54.4953 21.3327C54.2592 20.9972 54.1287 20.5994 54.1038 20.1396H55.2597C55.2821 20.4155 55.3716 20.6454 55.5282 20.8294C55.6873 21.0108 55.8899 21.1463 56.136 21.2358C56.3845 21.3228 56.6567 21.3663 56.9525 21.3663C57.2782 21.3663 57.5678 21.3153 57.8213 21.2134C58.0774 21.109 58.2787 20.9648 58.4254 20.7809C58.572 20.5945 58.6454 20.377 58.6454 20.1284C58.6454 19.9022 58.5807 19.717 58.4515 19.5728C58.3247 19.4286 58.1519 19.3093 57.9332 19.2148C57.7169 19.1204 57.4721 19.0371 57.1986 18.965L56.2963 18.7189C55.6848 18.5524 55.2001 18.3075 54.8421 17.9844C54.4866 17.6612 54.3089 17.2337 54.3089 16.7017C54.3089 16.2617 54.4282 15.8777 54.6669 15.5495C54.9055 15.2214 55.2286 14.9666 55.6363 14.7852C56.044 14.6012 56.5039 14.5092 57.0159 14.5092C57.533 14.5092 57.9891 14.6 58.3844 14.7814C58.7821 14.9629 59.0953 15.2127 59.324 15.5309C59.5527 15.8466 59.672 16.2095 59.682 16.6197H58.5708ZM61.0737 24.3977V16.5227H62.1625V17.4512H62.2557C62.3203 17.3319 62.4135 17.1939 62.5353 17.0373C62.6571 16.8807 62.8262 16.744 63.0424 16.6271C63.2587 16.5078 63.5446 16.4482 63.9 16.4482C64.3624 16.4482 64.775 16.565 65.138 16.7987C65.5009 17.0323 65.7855 17.3691 65.9918 17.8091C66.2006 18.2491 66.305 18.7786 66.305 19.3975C66.305 20.0165 66.2019 20.5472 65.9956 20.9897C65.7892 21.4297 65.5059 21.769 65.1454 22.0076C64.785 22.2438 64.3736 22.3619 63.9112 22.3619C63.5632 22.3619 63.2786 22.3034 63.0574 22.1866C62.8386 22.0698 62.6671 21.9331 62.5428 21.7765C62.4185 21.6199 62.3228 21.4806 62.2557 21.3588H62.1886V24.3977H61.0737ZM62.1662 19.3864C62.1662 19.7891 62.2246 20.142 62.3414 20.4453C62.4583 20.7486 62.6273 20.986 62.8485 21.1575C63.0698 21.3265 63.3407 21.411 63.6614 21.411C63.9945 21.411 64.2729 21.3228 64.4966 21.1463C64.7203 20.9673 64.8894 20.725 65.0037 20.4192C65.1206 20.1135 65.179 19.7692 65.179 19.3864C65.179 19.0085 65.1218 18.6692 65.0075 18.3684C64.8956 18.0676 64.7266 17.8303 64.5004 17.6562C64.2766 17.4822 63.997 17.3952 63.6614 17.3952C63.3382 17.3952 63.0648 17.4785 62.8411 17.6451C62.6199 17.8116 62.4521 18.044 62.3377 18.3423C62.2234 18.6406 62.1662 18.9886 62.1662 19.3864ZM67.5542 22.25V16.5227H68.6317V17.4325H68.6914C68.7958 17.1243 68.9798 16.8819 69.2433 16.7054C69.5092 16.5265 69.81 16.437 70.1456 16.437C70.2152 16.437 70.2972 16.4395 70.3917 16.4444C70.4886 16.4494 70.5645 16.4556 70.6191 16.4631V17.5295C70.5744 17.517 70.4949 17.5034 70.3805 17.4885C70.2662 17.4711 70.1518 17.4624 70.0375 17.4624C69.774 17.4624 69.5391 17.5183 69.3327 17.6301C69.1289 17.7395 68.9673 17.8924 68.848 18.0888C68.7287 18.2827 68.669 18.5039 68.669 18.7525V22.25H67.5542ZM73.1994 22.3768C72.8365 22.3768 72.5083 22.3097 72.215 22.1754C71.9217 22.0387 71.6893 21.8411 71.5178 21.5826C71.3487 21.324 71.2642 21.0071 71.2642 20.6317C71.2642 20.3086 71.3263 20.0426 71.4506 19.8338C71.5749 19.625 71.7427 19.4597 71.954 19.3379C72.1653 19.2161 72.4015 19.1241 72.6625 19.062C72.9235 18.9998 73.1895 18.9526 73.4604 18.9203C73.8034 18.8805 74.0819 18.8482 74.2956 18.8233C74.5094 18.796 74.6648 18.7525 74.7617 18.6928C74.8587 18.6332 74.9071 18.5362 74.9071 18.402V18.3759C74.9071 18.0502 74.8152 17.7979 74.6312 17.619C74.4498 17.44 74.1788 17.3505 73.8184 17.3505C73.443 17.3505 73.1472 17.4338 72.9309 17.6003C72.7172 17.7644 72.5692 17.9471 72.4872 18.1484L71.4395 17.9098C71.5637 17.5618 71.7452 17.2809 71.9838 17.0671C72.225 16.8509 72.5021 16.6942 72.8153 16.5973C73.1286 16.4979 73.4579 16.4482 73.8034 16.4482C74.0321 16.4482 74.2745 16.4755 74.5305 16.5302C74.7891 16.5824 75.0302 16.6793 75.2539 16.821C75.4801 16.9627 75.6653 17.1653 75.8095 17.4288C75.9537 17.6898 76.0257 18.0291 76.0257 18.4467V22.25H74.937V21.467H74.8922C74.8201 21.6112 74.712 21.7528 74.5678 21.892C74.4237 22.0312 74.2385 22.1468 74.0123 22.2388C73.786 22.3308 73.5151 22.3768 73.1994 22.3768ZM73.4418 21.4819C73.75 21.4819 74.0135 21.421 74.2322 21.2992C74.4535 21.1774 74.6213 21.0183 74.7356 20.8219C74.8525 20.623 74.9109 20.4105 74.9109 20.1843V19.446C74.8711 19.4858 74.794 19.5231 74.6797 19.5579C74.5678 19.5902 74.4398 19.6188 74.2956 19.6436C74.1515 19.666 74.011 19.6871 73.8743 19.707C73.7376 19.7244 73.6232 19.7393 73.5312 19.7518C73.315 19.7791 73.1174 19.8251 72.9384 19.8897C72.7619 19.9544 72.6202 20.0476 72.5133 20.1694C72.4089 20.2887 72.3567 20.4478 72.3567 20.6467C72.3567 20.9226 72.4586 21.1314 72.6625 21.2731C72.8663 21.4123 73.1261 21.4819 73.4418 21.4819ZM79.9232 22.3656C79.3688 22.3656 78.8916 22.2401 78.4913 21.989C78.0936 21.7354 77.7879 21.3862 77.5741 20.9412C77.3603 20.4963 77.2534 19.9867 77.2534 19.4125C77.2534 18.8308 77.3628 18.3175 77.5815 17.8725C77.8003 17.4251 78.1085 17.0758 78.5063 16.8248C78.904 16.5737 79.3726 16.4482 79.912 16.4482C80.347 16.4482 80.7348 16.5289 81.0753 16.6905C81.4159 16.8496 81.6906 17.0733 81.8994 17.3617C82.1107 17.65 82.2362 17.9869 82.276 18.3722H81.1909C81.1313 18.1037 80.9945 17.8725 80.7808 17.6786C80.5695 17.4847 80.2861 17.3878 79.9306 17.3878C79.6199 17.3878 79.3477 17.4698 79.114 17.6339C78.8829 17.7955 78.7026 18.0266 78.5734 18.3274C78.4441 18.6257 78.3795 18.9787 78.3795 19.3864C78.3795 19.804 78.4429 20.1644 78.5696 20.4677C78.6964 20.771 78.8754 21.0059 79.1066 21.1724C79.3402 21.339 79.6149 21.4222 79.9306 21.4222C80.1419 21.4222 80.3333 21.3837 80.5048 21.3066C80.6788 21.2271 80.8243 21.114 80.9411 20.9673C81.0604 20.8207 81.1437 20.6442 81.1909 20.4379H82.276C82.2362 20.8082 82.1156 21.1388 81.9143 21.4297C81.7129 21.7205 81.4432 21.9492 81.1052 22.1158C80.7696 22.2823 80.3756 22.3656 79.9232 22.3656ZM84.5831 18.8494V22.25H83.4682V14.6136H84.5682V17.4549H84.639C84.7733 17.1467 84.9783 16.9018 85.2543 16.7203C85.5302 16.5389 85.8906 16.4482 86.3356 16.4482C86.7283 16.4482 87.0714 16.5289 87.3647 16.6905C87.6605 16.8521 87.8892 17.0932 88.0508 17.4139C88.2148 17.7321 88.2969 18.1298 88.2969 18.6071V22.25H87.182V18.7413C87.182 18.3212 87.0739 17.9956 86.8576 17.7644C86.6413 17.5307 86.3406 17.4139 85.9553 17.4139C85.6918 17.4139 85.4556 17.4698 85.2468 17.5817C85.0405 17.6935 84.8777 17.8576 84.7583 18.0739C84.6415 18.2876 84.5831 18.5462 84.5831 18.8494ZM92.253 22.3656C91.6887 22.3656 91.2028 22.245 90.7951 22.0039C90.3899 21.7603 90.0767 21.4185 89.8555 20.9785C89.6367 20.536 89.5273 20.0178 89.5273 19.4237C89.5273 18.837 89.6367 18.32 89.8555 17.8725C90.0767 17.4251 90.3849 17.0758 90.7802 16.8248C91.1779 16.5737 91.6428 16.4482 92.1747 16.4482C92.4979 16.4482 92.8111 16.5016 93.1143 16.6085C93.4176 16.7154 93.6898 16.8832 93.9309 17.1119C94.1721 17.3406 94.3622 17.6376 94.5014 18.003C94.6406 18.3659 94.7102 18.8072 94.7102 19.3267V19.7219H90.1575V18.8867H93.6177C93.6177 18.5934 93.5581 18.3336 93.4387 18.1074C93.3194 17.8787 93.1516 17.6985 92.9354 17.5668C92.7216 17.435 92.4705 17.3691 92.1822 17.3691C91.869 17.3691 91.5955 17.4462 91.3619 17.6003C91.1307 17.752 90.9517 17.9508 90.8249 18.1969C90.7006 18.4405 90.6385 18.7053 90.6385 18.9911V19.6436C90.6385 20.0265 90.7056 20.3521 90.8398 20.6206C90.9766 20.889 91.1667 21.0941 91.4103 21.2358C91.6539 21.375 91.9386 21.4446 92.2642 21.4446C92.4755 21.4446 92.6681 21.4148 92.8422 21.3551C93.0162 21.293 93.1665 21.201 93.2933 21.0792C93.4201 20.9574 93.517 20.807 93.5842 20.628L94.6394 20.8182C94.5549 21.1289 94.4032 21.4011 94.1845 21.6348C93.9682 21.8659 93.696 22.0462 93.3679 22.1754C93.0423 22.3022 92.6706 22.3656 92.253 22.3656Z" fill="black"/>
<path d="M116.125 17.8448C116.125 17.6777 116.236 17.5308 116.396 17.4845L125.396 14.8868C125.636 14.8176 125.875 14.9975 125.875 15.2471V27.1552C125.875 27.3223 125.764 27.4692 125.604 27.5155L116.604 30.1132C116.364 30.1824 116.125 30.0025 116.125 29.7529V17.8448Z" fill="white" stroke="black" stroke-width="0.75" stroke-miterlimit="1.41421" stroke-linejoin="round"/>
<path d="M116.125 17.8448C116.125 17.6777 116.014 17.5308 115.854 17.4845L106.854 14.8868C106.614 14.8176 106.375 14.9975 106.375 15.2471V27.1552C106.375 27.3223 106.486 27.4692 106.646 27.5155L115.646 30.1132C115.886 30.1824 116.125 30.0025 116.125 29.7529V17.8448Z" fill="white" stroke="black" stroke-width="0.75" stroke-miterlimit="1.41421" stroke-linejoin="round"/>
<circle cx="116.125" cy="11.625" r="4.5" fill="white" stroke="black" stroke-width="0.75"/>
<rect x="118.986" y="20.4639" width="4.875" height="0.375" rx="0.1875" transform="rotate(-17.6526 118.986 20.4639)" fill="white" stroke="black" stroke-width="0.375"/>
<rect x="-0.23553" y="0.121813" width="4.875" height="0.375" rx="0.1875" transform="matrix(-0.952913 -0.303245 -0.303245 0.952913 113.057 20.2764)" fill="white" stroke="black" stroke-width="0.375"/>
<rect x="-0.23553" y="0.121813" width="4.875" height="0.375" rx="0.1875" transform="matrix(-0.952913 -0.303245 -0.303245 0.952913 113.057 22.5264)" fill="white" stroke="black" stroke-width="0.375"/>
</svg>
