<svg width="288" height="44" viewBox="0 0 288 44" fill="none" xmlns="http://www.w3.org/2000/svg">
<rect x="0.5" y="0.5" width="287" height="43" rx="21.5" stroke="#B0B0B0" stroke-dasharray="2 2"/>
<circle cx="78" cy="22" r="16" fill="#797979"/>
<path d="M71 25L78.5 17L86 25" stroke="white" stroke-width="4" stroke-linecap="round" stroke-linejoin="round"/>
<path d="M102.751 27V25.704L109.055 17.608H102.991V16.312H110.815V17.608L104.543 25.704H111.055V27H102.751ZM115.398 27.192C114.779 27.192 114.283 27.064 113.91 26.808C113.536 26.5413 113.264 26.1787 113.094 25.72C112.934 25.2507 112.854 24.7173 112.854 24.12V19.048H114.198V23.8C114.198 24.3867 114.267 24.84 114.406 25.16C114.544 25.48 114.736 25.704 114.982 25.832C115.238 25.9493 115.531 26.008 115.862 26.008C116.491 26.008 116.982 25.7893 117.334 25.352C117.696 24.904 117.878 24.2587 117.878 23.416V19.048H119.222V27H118.214L117.878 25.848C117.654 26.232 117.35 26.552 116.966 26.808C116.582 27.064 116.059 27.192 115.398 27.192ZM121.464 27V19.064H122.456L122.808 20.264C123.032 19.8907 123.336 19.576 123.72 19.32C124.114 19.064 124.605 18.936 125.192 18.936C125.8 18.936 126.29 19.0587 126.664 19.304C127.037 19.5493 127.309 19.8907 127.48 20.328C127.8 19.8373 128.184 19.4853 128.632 19.272C129.09 19.048 129.597 18.936 130.152 18.936C131.069 18.936 131.725 19.2187 132.12 19.784C132.514 20.3387 132.712 21.0693 132.712 21.976V27H131.368V22.376C131.368 21.9707 131.325 21.5973 131.24 21.256C131.165 20.904 131.005 20.6213 130.76 20.408C130.525 20.1947 130.162 20.088 129.672 20.088C129.096 20.088 128.632 20.312 128.28 20.76C127.938 21.1973 127.768 21.8427 127.768 22.696V27H126.424V22.376C126.424 21.9707 126.381 21.5973 126.296 21.256C126.221 20.904 126.061 20.6213 125.816 20.408C125.581 20.1947 125.218 20.088 124.728 20.088C124.152 20.088 123.688 20.312 123.336 20.76C122.984 21.1973 122.808 21.8427 122.808 22.696V27H121.464ZM143.017 27.192C142.431 27.192 141.86 27.1013 141.305 26.92C140.751 26.7387 140.26 26.4613 139.833 26.088C139.417 25.7147 139.113 25.24 138.921 24.664L140.313 24.248C140.441 24.632 140.649 24.952 140.937 25.208C141.225 25.4533 141.556 25.6347 141.929 25.752C142.313 25.8693 142.697 25.928 143.081 25.928C143.508 25.928 143.913 25.8587 144.297 25.72C144.681 25.5813 144.991 25.3733 145.225 25.096C145.471 24.808 145.593 24.4507 145.593 24.024C145.593 23.5867 145.433 23.24 145.113 22.984C144.793 22.728 144.239 22.4987 143.449 22.296L142.089 21.992C141.599 21.864 141.113 21.6933 140.633 21.48C140.164 21.2667 139.775 20.9627 139.465 20.568C139.167 20.1733 139.017 19.6453 139.017 18.984C139.017 18.376 139.204 17.8587 139.577 17.432C139.961 17.0053 140.452 16.68 141.049 16.456C141.657 16.232 142.287 16.12 142.937 16.12C143.439 16.12 143.929 16.1947 144.409 16.344C144.9 16.4827 145.337 16.7013 145.721 17C146.116 17.288 146.425 17.6613 146.649 18.12L145.273 18.52C145.071 18.1467 144.74 17.864 144.281 17.672C143.833 17.48 143.364 17.384 142.873 17.384C142.489 17.384 142.121 17.448 141.769 17.576C141.417 17.6933 141.129 17.8747 140.905 18.12C140.681 18.3653 140.569 18.6747 140.569 19.048C140.569 19.4 140.671 19.6827 140.873 19.896C141.087 20.1093 141.364 20.28 141.705 20.408C142.057 20.5253 142.441 20.632 142.857 20.728L144.025 20.984C144.569 21.112 145.081 21.288 145.561 21.512C146.041 21.736 146.431 22.0507 146.729 22.456C147.028 22.8613 147.177 23.4053 147.177 24.088C147.177 24.5787 147.06 25.0213 146.825 25.416C146.591 25.8 146.276 26.1253 145.881 26.392C145.487 26.648 145.039 26.8453 144.537 26.984C144.047 27.1227 143.54 27.192 143.017 27.192ZM152.309 27.192C151.477 27.192 150.773 27.0107 150.197 26.648C149.621 26.2747 149.178 25.7787 148.868 25.16C148.57 24.5307 148.421 23.8267 148.421 23.048C148.421 22.2053 148.591 21.48 148.933 20.872C149.274 20.2533 149.733 19.7787 150.309 19.448C150.895 19.1067 151.551 18.936 152.277 18.936C152.906 18.936 153.461 19.064 153.941 19.32C154.421 19.5653 154.815 19.9013 155.125 20.328C155.445 20.744 155.674 21.2187 155.812 21.752C155.962 22.2853 156.015 22.8347 155.973 23.4H149.861C149.882 24.0613 150.026 24.584 150.293 24.968C150.57 25.352 150.895 25.624 151.269 25.784C151.642 25.9333 151.989 26.008 152.309 26.008C152.757 26.008 153.13 25.9387 153.429 25.8C153.738 25.6507 153.983 25.4587 154.165 25.224L155.461 25.608C155.173 26.0667 154.762 26.4453 154.229 26.744C153.695 27.0427 153.055 27.192 152.309 27.192ZM149.877 22.328H154.549C154.549 21.9547 154.453 21.5973 154.261 21.256C154.079 20.9147 153.818 20.6373 153.477 20.424C153.146 20.2 152.746 20.088 152.277 20.088C151.882 20.088 151.509 20.1627 151.157 20.312C150.805 20.4613 150.511 20.7013 150.277 21.032C150.053 21.3627 149.919 21.7947 149.877 22.328ZM158.934 17.56C158.667 17.56 158.432 17.464 158.23 17.272C158.038 17.0693 157.942 16.8293 157.942 16.552C157.942 16.2747 158.038 16.04 158.23 15.848C158.432 15.656 158.667 15.56 158.934 15.56C159.211 15.56 159.446 15.656 159.638 15.848C159.84 16.04 159.942 16.2747 159.942 16.552C159.942 16.8293 159.84 17.0693 159.638 17.272C159.446 17.464 159.211 17.56 158.934 17.56ZM158.262 27V20.136H157.158V19.064H159.606V27H158.262ZM164.427 27C163.925 27 163.536 26.952 163.259 26.856C162.992 26.7493 162.805 26.552 162.699 26.264C162.603 25.976 162.555 25.56 162.555 25.016V20.136H161.211V19.064H162.555V17.064H163.899V19.064H165.435V20.136H163.899V24.792C163.899 25.1973 163.936 25.4693 164.011 25.608C164.096 25.7467 164.331 25.816 164.715 25.816H165.435V27H164.427ZM170.574 27.192C169.742 27.192 169.038 27.0107 168.462 26.648C167.886 26.2747 167.443 25.7787 167.134 25.16C166.835 24.5307 166.686 23.8267 166.686 23.048C166.686 22.2053 166.857 21.48 167.198 20.872C167.539 20.2533 167.998 19.7787 168.574 19.448C169.161 19.1067 169.817 18.936 170.542 18.936C171.171 18.936 171.726 19.064 172.206 19.32C172.686 19.5653 173.081 19.9013 173.39 20.328C173.71 20.744 173.939 21.2187 174.078 21.752C174.227 22.2853 174.281 22.8347 174.238 23.4H168.126C168.147 24.0613 168.291 24.584 168.558 24.968C168.835 25.352 169.161 25.624 169.534 25.784C169.907 25.9333 170.254 26.008 170.574 26.008C171.022 26.008 171.395 25.9387 171.694 25.8C172.003 25.6507 172.249 25.4587 172.43 25.224L173.726 25.608C173.438 26.0667 173.027 26.4453 172.494 26.744C171.961 27.0427 171.321 27.192 170.574 27.192ZM168.142 22.328H172.814C172.814 21.9547 172.718 21.5973 172.526 21.256C172.345 20.9147 172.083 20.6373 171.742 20.424C171.411 20.2 171.011 20.088 170.542 20.088C170.147 20.088 169.774 20.1627 169.422 20.312C169.07 20.4613 168.777 20.7013 168.542 21.032C168.318 21.3627 168.185 21.7947 168.142 22.328ZM175.823 27V19.064H176.815L177.167 20.264C177.391 19.8907 177.706 19.576 178.111 19.32C178.516 19.064 179.055 18.936 179.727 18.936C180.687 18.936 181.364 19.2187 181.759 19.784C182.154 20.3387 182.351 21.0693 182.351 21.976V27H181.007V22.376C181.007 21.9707 180.97 21.5973 180.895 21.256C180.82 20.904 180.655 20.6213 180.399 20.408C180.154 20.1947 179.775 20.088 179.263 20.088C178.612 20.088 178.1 20.312 177.727 20.76C177.354 21.1973 177.167 21.8427 177.167 22.696V27H175.823ZM186.782 27.192C186.28 27.192 185.822 27.1013 185.406 26.92C184.99 26.7387 184.659 26.4773 184.414 26.136C184.168 25.7947 184.046 25.384 184.046 24.904C184.046 24.2747 184.264 23.7787 184.702 23.416C185.15 23.0533 185.774 22.776 186.574 22.584C187.384 22.3813 188.328 22.2213 189.406 22.104C189.427 21.432 189.294 20.9147 189.006 20.552C188.718 20.1893 188.254 20.008 187.614 20.008C187.134 20.008 186.739 20.12 186.43 20.344C186.131 20.5573 185.939 20.856 185.854 21.24L184.558 20.856C184.771 20.248 185.15 19.7787 185.694 19.448C186.248 19.1067 186.883 18.936 187.598 18.936C188.696 18.936 189.496 19.1973 189.998 19.72C190.51 20.232 190.766 21.0427 190.766 22.152V24.008C190.766 24.6693 190.792 25.24 190.846 25.72C190.899 26.2 190.963 26.6267 191.038 27H189.806L189.486 25.912C189.251 26.3067 188.915 26.6213 188.478 26.856C188.04 27.08 187.475 27.192 186.782 27.192ZM187.07 26.12C187.486 26.12 187.88 26.0453 188.254 25.896C188.627 25.7467 188.931 25.496 189.166 25.144C189.4 24.7813 189.518 24.2907 189.518 23.672V23.176C188.707 23.2613 188.003 23.368 187.406 23.496C186.808 23.6133 186.344 23.784 186.014 24.008C185.694 24.2213 185.534 24.5093 185.534 24.872C185.534 25.2453 185.667 25.5493 185.934 25.784C186.211 26.008 186.59 26.12 187.07 26.12ZM192.979 27V19.064H193.971L194.323 20.264C194.547 19.8907 194.862 19.576 195.267 19.32C195.673 19.064 196.211 18.936 196.883 18.936C197.843 18.936 198.521 19.2187 198.915 19.784C199.31 20.3387 199.507 21.0693 199.507 21.976V27H198.163V22.376C198.163 21.9707 198.126 21.5973 198.051 21.256C197.977 20.904 197.811 20.6213 197.555 20.408C197.31 20.1947 196.931 20.088 196.419 20.088C195.769 20.088 195.257 20.312 194.883 20.76C194.51 21.1973 194.323 21.8427 194.323 22.696V27H192.979ZM202.178 27V20.136H200.834V19.064H202.178V17.88C202.178 17.336 202.231 16.904 202.338 16.584C202.444 16.264 202.652 16.04 202.962 15.912C203.271 15.7733 203.719 15.704 204.306 15.704H205.17V16.84H204.338C203.996 16.84 203.772 16.9093 203.666 17.048C203.57 17.1867 203.522 17.4587 203.522 17.864V19.064H205.17V20.136H203.522V27H202.178ZM208.407 27.192C207.905 27.192 207.447 27.1013 207.031 26.92C206.615 26.7387 206.284 26.4773 206.039 26.136C205.793 25.7947 205.671 25.384 205.671 24.904C205.671 24.2747 205.889 23.7787 206.327 23.416C206.775 23.0533 207.399 22.776 208.199 22.584C209.009 22.3813 209.953 22.2213 211.031 22.104C211.052 21.432 210.919 20.9147 210.631 20.552C210.343 20.1893 209.879 20.008 209.239 20.008C208.759 20.008 208.364 20.12 208.055 20.344C207.756 20.5573 207.564 20.856 207.479 21.24L206.183 20.856C206.396 20.248 206.775 19.7787 207.319 19.448C207.873 19.1067 208.508 18.936 209.223 18.936C210.321 18.936 211.121 19.1973 211.623 19.72C212.135 20.232 212.391 21.0427 212.391 22.152V24.008C212.391 24.6693 212.417 25.24 212.471 25.72C212.524 26.2 212.588 26.6267 212.663 27H211.431L211.111 25.912C210.876 26.3067 210.54 26.6213 210.103 26.856C209.665 27.08 209.1 27.192 208.407 27.192ZM208.695 26.12C209.111 26.12 209.505 26.0453 209.879 25.896C210.252 25.7467 210.556 25.496 210.791 25.144C211.025 24.7813 211.143 24.2907 211.143 23.672V23.176C210.332 23.2613 209.628 23.368 209.031 23.496C208.433 23.6133 207.969 23.784 207.639 24.008C207.319 24.2213 207.159 24.5093 207.159 24.872C207.159 25.2453 207.292 25.5493 207.559 25.784C207.836 26.008 208.215 26.12 208.695 26.12ZM214.604 27V19.064H215.596L215.948 20.264C216.172 19.8907 216.487 19.576 216.892 19.32C217.298 19.064 217.836 18.936 218.508 18.936C219.468 18.936 220.146 19.2187 220.54 19.784C220.935 20.3387 221.132 21.0693 221.132 21.976V27H219.788V22.376C219.788 21.9707 219.751 21.5973 219.676 21.256C219.602 20.904 219.436 20.6213 219.18 20.408C218.935 20.1947 218.556 20.088 218.044 20.088C217.394 20.088 216.882 20.312 216.508 20.76C216.135 21.1973 215.948 21.8427 215.948 22.696V27H214.604ZM226.384 30.072C225.957 30.072 225.531 30.008 225.104 29.88C224.688 29.7627 224.315 29.5653 223.984 29.288C223.664 29.0107 223.435 28.6533 223.296 28.216L224.64 27.848C224.789 28.264 225.035 28.5413 225.376 28.68C225.717 28.8187 226.053 28.888 226.384 28.888C227.205 28.888 227.76 28.6907 228.048 28.296C228.347 27.9013 228.496 27.32 228.496 26.552V25.496C228.251 25.912 227.925 26.2427 227.52 26.488C227.115 26.7333 226.597 26.856 225.968 26.856C225.381 26.856 224.832 26.7067 224.32 26.408C223.808 26.0987 223.392 25.6507 223.072 25.064C222.763 24.4667 222.608 23.7467 222.608 22.904C222.608 22.0507 222.763 21.3307 223.072 20.744C223.392 20.1573 223.808 19.7093 224.32 19.4C224.832 19.0907 225.381 18.936 225.968 18.936C226.597 18.936 227.115 19.064 227.52 19.32C227.925 19.5653 228.251 19.896 228.496 20.312L228.864 19.064H229.84V26.248C229.84 27.5067 229.584 28.456 229.072 29.096C228.571 29.7467 227.675 30.072 226.384 30.072ZM226.304 25.736C226.709 25.736 227.077 25.64 227.408 25.448C227.749 25.256 228.021 24.952 228.224 24.536C228.437 24.12 228.544 23.576 228.544 22.904C228.544 22.232 228.437 21.688 228.224 21.272C228.021 20.856 227.749 20.5573 227.408 20.376C227.077 20.184 226.709 20.088 226.304 20.088C225.653 20.088 225.115 20.3333 224.688 20.824C224.272 21.304 224.064 21.9973 224.064 22.904C224.064 23.8107 224.272 24.5093 224.688 25C225.115 25.4907 225.653 25.736 226.304 25.736Z" fill="white"/>
</svg>
